<svg width="63" height="63" viewBox="0 0 63 63" fill="none" xmlns="http://www.w3.org/2000/svg">
<rect x="0.458984" y="0.541016" width="61.6667" height="61.6667" rx="30.8333" fill="#7A67C7" fill-opacity="0.2"/>
<path d="M35.6407 28.5676L35.6408 28.5676C35.7057 28.6325 35.7573 28.7095 35.7924 28.7943C35.8276 28.8791 35.8457 28.97 35.8457 29.0618C35.8457 29.1537 35.8276 29.2446 35.7924 29.3294C35.7573 29.4142 35.7057 29.4912 35.6408 29.5561L35.6408 29.5561L30.2449 34.9519L30.2449 34.952C30.18 35.0169 30.103 35.0685 30.0182 35.1036C29.9334 35.1388 29.8425 35.1569 29.7507 35.1569C29.6589 35.1569 29.5679 35.1388 29.4831 35.1036C29.3983 35.0685 29.3213 35.0169 29.2564 34.952L29.2564 34.9519L26.9439 32.6394C26.8128 32.5084 26.7392 32.3306 26.7392 32.1452C26.7392 31.9598 26.8128 31.782 26.9439 31.6509C27.075 31.5198 27.2528 31.4462 27.4382 31.4462C27.6235 31.4462 27.8013 31.5198 27.9324 31.6509L29.6995 33.419L29.7506 33.4701L29.8018 33.419L34.6522 28.5676L34.6523 28.5676C34.7171 28.5026 34.7942 28.4511 34.879 28.4159C34.9638 28.3808 35.0547 28.3627 35.1465 28.3627C35.2383 28.3627 35.3292 28.3808 35.414 28.4159C35.4988 28.4511 35.5758 28.5026 35.6407 28.5676ZM39.8438 31.3744V31.3743C39.8438 29.683 39.3422 28.0297 38.4026 26.6234C37.4629 25.2172 36.1274 24.1211 34.5648 23.4739C33.0022 22.8266 31.2828 22.6573 29.624 22.9872C27.9652 23.3172 26.4415 24.1316 25.2455 25.3276C24.0496 26.5235 23.2352 28.0472 22.9052 29.706C22.5752 31.3649 22.7446 33.0843 23.3918 34.6468C24.0391 36.2094 25.1351 37.545 26.5414 38.4846C27.9477 39.4242 29.601 39.9258 31.2923 39.9258H31.2924C33.5596 39.9232 35.7331 39.0214 37.3363 37.4183C38.9394 35.8152 39.8412 33.6416 39.8438 31.3744ZM41.2409 31.3744C41.2409 33.342 40.6574 35.2655 39.5643 36.9015C38.4711 38.5375 36.9173 39.8126 35.0995 40.5656C33.2816 41.3186 31.2813 41.5156 29.3515 41.1318C27.4216 40.7479 25.649 39.8004 24.2576 38.409C22.8663 37.0177 21.9188 35.2451 21.5349 33.3152C21.151 31.3854 21.3481 29.3851 22.101 27.5672C22.854 25.7493 24.1292 24.1956 25.7652 23.1024C27.4012 22.0093 29.3247 21.4258 31.2923 21.4258C33.93 21.4286 36.4588 22.4776 38.3239 24.3427C40.1891 26.2079 41.2381 28.7367 41.2409 31.3744Z" fill="#7A67C7" stroke="#7A67C7" stroke-width="0.144531"/>
</svg>
