<svg width="63" height="63" viewBox="0 0 63 63" fill="none" xmlns="http://www.w3.org/2000/svg">
<rect x="0.714844" y="0.541016" width="61.6667" height="61.6667" rx="30.8333" fill="#7A67C7" fill-opacity="0.2"/>
<path d="M24.5606 25.7104L24.6117 25.7616L24.6629 25.7105L27.2008 23.1715C27.2008 23.1715 27.2008 23.1715 27.2008 23.1715C27.3319 23.0404 27.5097 22.9668 27.6951 22.9668C27.8805 22.9668 28.0583 23.0404 28.1894 23.1715C28.3204 23.3026 28.3941 23.4804 28.3941 23.6658C28.3941 23.8512 28.3204 24.029 28.1894 24.1601L25.106 27.2434L25.106 27.2434C25.0411 27.3084 24.9641 27.3599 24.8793 27.3951C24.7945 27.4302 24.7036 27.4483 24.6118 27.4483C24.52 27.4483 24.4291 27.4302 24.3442 27.3951C24.2594 27.3599 24.1824 27.3084 24.1175 27.2434L24.1175 27.2434L22.5758 25.7017C22.4447 25.5706 22.3711 25.3928 22.3711 25.2075C22.3711 25.0221 22.4447 24.8443 22.5758 24.7132C22.7069 24.5821 22.8847 24.5085 23.0701 24.5085C23.2555 24.5085 23.4332 24.5821 23.5643 24.7132C23.5643 24.7132 23.5643 24.7132 23.5644 24.7132L24.5606 25.7104ZM24.5606 31.8771L24.6117 31.9283L24.6629 31.8771L27.2008 29.3382C27.2008 29.3382 27.2008 29.3382 27.2008 29.3382C27.3319 29.2071 27.5097 29.1335 27.6951 29.1335C27.8805 29.1335 28.0583 29.2071 28.1894 29.3382C28.3204 29.4693 28.3941 29.6471 28.3941 29.8325C28.3941 30.0178 28.3204 30.1956 28.1894 30.3267L25.106 33.4101L25.106 33.4101C25.0411 33.475 24.9641 33.5266 24.8793 33.5617C24.7945 33.5969 24.7036 33.615 24.6118 33.615C24.52 33.615 24.4291 33.5969 24.3442 33.5617C24.2594 33.5266 24.1824 33.475 24.1175 33.4101L24.1175 33.4101L22.5758 31.8684C22.5109 31.8035 22.4594 31.7264 22.4243 31.6416C22.3892 31.5568 22.3711 31.4659 22.3711 31.3741C22.3711 31.1887 22.4447 31.0109 22.5758 30.8799C22.7069 30.7488 22.8847 30.6751 23.0701 30.6751C23.2555 30.6751 23.4333 30.7488 23.5644 30.8799L24.5606 31.8771ZM24.5606 38.0438L24.6117 38.0949L24.6629 38.0438L27.2008 35.5049C27.3319 35.3738 27.5097 35.3001 27.6951 35.3001C27.8805 35.3001 28.0583 35.3738 28.1894 35.5049C28.3204 35.6359 28.3941 35.8137 28.3941 35.9991C28.3941 36.1845 28.3204 36.3623 28.1894 36.4934L25.106 39.5767L25.106 39.5768C25.0411 39.6417 24.9641 39.6932 24.8793 39.7284C24.7945 39.7635 24.7036 39.7816 24.6118 39.7816C24.52 39.7816 24.4291 39.7635 24.3442 39.7284C24.2594 39.6932 24.1824 39.6417 24.1175 39.5768L24.1175 39.5767L22.5758 38.0351C22.5109 37.9702 22.4594 37.8931 22.4243 37.8083C22.3892 37.7235 22.3711 37.6326 22.3711 37.5408C22.3711 37.449 22.3892 37.3581 22.4243 37.2733C22.4594 37.1885 22.5109 37.1114 22.5758 37.0465C22.6407 36.9816 22.7178 36.9301 22.8026 36.895C22.8874 36.8599 22.9783 36.8418 23.0701 36.8418C23.1619 36.8418 23.2528 36.8599 23.3376 36.895C23.4224 36.9301 23.4994 36.9816 23.5644 37.0465L24.5606 38.0438ZM40.727 31.3741C40.727 31.5594 40.6534 31.7371 40.5224 31.8681C40.3914 31.9991 40.2137 32.0727 40.0284 32.0727H31.5493C31.364 32.0727 31.1863 31.9991 31.0553 31.8681C30.9243 31.7371 30.8507 31.5594 30.8507 31.3741C30.8507 31.1889 30.9243 31.0112 31.0553 30.8802C31.1863 30.7492 31.364 30.6756 31.5493 30.6756H40.0284C40.2137 30.6756 40.3914 30.7492 40.5224 30.8802C40.6534 31.0112 40.727 31.1889 40.727 31.3741ZM40.0284 25.906H31.5493C31.364 25.906 31.1863 25.8324 31.0553 25.7014C30.9243 25.5704 30.8507 25.3927 30.8507 25.2075C30.8507 25.0222 30.9243 24.8445 31.0553 24.7135C31.1863 24.5825 31.364 24.5089 31.5493 24.5089H40.0284C40.2137 24.5089 40.3914 24.5825 40.5224 24.7135C40.6534 24.8445 40.727 25.0222 40.727 25.2075C40.727 25.3927 40.6534 25.5704 40.5224 25.7014C40.3914 25.8324 40.2137 25.906 40.0284 25.906ZM31.5493 36.8422H40.0284C40.2137 36.8422 40.3914 36.9158 40.5224 37.0468C40.6534 37.1778 40.727 37.3555 40.727 37.5408C40.727 37.7261 40.6534 37.9037 40.5224 38.0348C40.3914 38.1658 40.2137 38.2394 40.0284 38.2394H31.5493C31.364 38.2394 31.1863 38.1658 31.0553 38.0348C30.9243 37.9037 30.8507 37.7261 30.8507 37.5408C30.8507 37.3555 30.9243 37.1778 31.0553 37.0468C31.1863 36.9158 31.364 36.8422 31.5493 36.8422Z" fill="#7A67C7" stroke="#7A67C7" stroke-width="0.144531"/>
</svg>
