<svg width="62" height="63" viewBox="0 0 62 63" fill="none" xmlns="http://www.w3.org/2000/svg">
<rect x="0.306641" y="0.541016" width="61.6667" height="61.6667" rx="30.8333" fill="#7A67C7" fill-opacity="0.2"/>
<path d="M28.8268 29.1335H28.8991V29.0612V24.4362V24.3639H28.8268H24.2018H24.1296V24.4362V29.0612V29.1335H24.2018H28.8268ZM38.0768 29.1335H38.1491V29.0612V24.4362V24.3639H38.0768H33.4518H33.3796V24.4362V29.0612V29.1335H33.4518H38.0768ZM28.8268 38.3835H28.8991V38.3112V33.6862V33.6139H28.8268H24.2018H24.1296V33.6862V38.3112V38.3835H24.2018H28.8268ZM38.0768 38.3835H38.1491V38.3112V33.6862V33.6139H38.0768H33.4518H33.3796V33.6862V38.3112V38.3835H33.4518H38.0768ZM24.2018 22.9668H28.8268C29.2165 22.9668 29.5903 23.1216 29.8658 23.3972C30.1414 23.6727 30.2962 24.0465 30.2962 24.4362V29.0612C30.2962 29.4509 30.1414 29.8247 29.8658 30.1002C29.5903 30.3758 29.2165 30.5306 28.8268 30.5306H24.2018C23.8121 30.5306 23.4384 30.3758 23.1628 30.1002C22.8872 29.8247 22.7324 29.4509 22.7324 29.0612V24.4362C22.7324 24.0465 22.8872 23.6727 23.1628 23.3972C23.4384 23.1216 23.8121 22.9668 24.2018 22.9668ZM33.4518 22.9668H38.0768C38.4665 22.9668 38.8403 23.1216 39.1158 23.3972C39.3914 23.6727 39.5462 24.0465 39.5462 24.4362V29.0612C39.5462 29.4509 39.3914 29.8247 39.1158 30.1002C38.8403 30.3758 38.4665 30.5306 38.0768 30.5306H33.4518C33.0621 30.5306 32.6884 30.3758 32.4128 30.1002C32.1372 29.8247 31.9824 29.4509 31.9824 29.0612V24.4362C31.9824 24.0465 32.1372 23.6727 32.4128 23.3972C32.6884 23.1216 33.0621 22.9668 33.4518 22.9668ZM24.2018 32.2168H28.8268C29.2165 32.2168 29.5903 32.3716 29.8658 32.6472C30.1414 32.9227 30.2962 33.2965 30.2962 33.6862V38.3112C30.2962 38.7009 30.1414 39.0747 29.8658 39.3502C29.5903 39.6258 29.2165 39.7806 28.8268 39.7806H24.2018C23.8121 39.7806 23.4384 39.6258 23.1628 39.3502C22.8872 39.0747 22.7324 38.7009 22.7324 38.3112V33.6862C22.7324 33.2965 22.8872 32.9227 23.1628 32.6472C23.4384 32.3716 23.8121 32.2168 24.2018 32.2168ZM33.4518 32.2168H38.0768C38.4665 32.2168 38.8403 32.3716 39.1158 32.6472C39.3914 32.9227 39.5462 33.2965 39.5462 33.6862V38.3112C39.5462 38.7009 39.3914 39.0747 39.1158 39.3502C38.8403 39.6258 38.4665 39.7806 38.0768 39.7806H33.4518C33.0621 39.7806 32.6884 39.6258 32.4128 39.3502C32.1372 39.0747 31.9824 38.7009 31.9824 38.3112V33.6862C31.9824 33.2965 32.1372 32.9227 32.4128 32.6472C32.6884 32.3716 33.0621 32.2168 33.4518 32.2168Z" fill="#7A67C7" stroke="#7A67C7" stroke-width="0.144531"/>
</svg>
