<svg width="397" height="279" viewBox="0 0 397 279" fill="none" xmlns="http://www.w3.org/2000/svg">
<g clip-path="url(#clip0_348_7414)">
<path d="M216.624 69.375C216.624 69.375 220.026 101.133 233.279 114.386C246.532 127.639 278.29 131.042 278.29 131.042C278.29 131.042 246.532 134.444 233.279 147.697C220.026 160.95 216.624 192.708 216.624 192.708C216.624 192.708 213.221 160.95 199.968 147.697C186.715 134.444 154.957 131.042 154.957 131.042C154.957 131.042 186.715 127.639 199.968 114.386C213.221 101.133 216.624 69.375 216.624 69.375Z" fill="white" fill-opacity="0.25"/>
<path d="M324.542 143.375C324.542 143.375 327.944 175.133 341.197 188.386C354.45 201.639 386.208 205.042 386.208 205.042C386.208 205.042 354.45 208.444 341.197 221.697C327.944 234.95 324.542 266.708 324.542 266.708C324.542 266.708 321.139 234.95 307.886 221.697C294.633 208.444 262.875 205.042 262.875 205.042C262.875 205.042 294.633 201.639 307.886 188.386C321.139 175.133 324.542 143.375 324.542 143.375Z" fill="white" fill-opacity="0.1"/>
<path d="M107.167 188.084C107.167 188.084 110.569 234.927 123.822 254.475C137.075 274.024 168.833 279.042 168.833 279.042C168.833 279.042 137.075 284.061 123.822 303.609C110.569 323.158 107.167 370.001 107.167 370.001C107.167 370.001 103.764 323.158 90.5111 303.609C77.2579 284.061 45.5 279.042 45.5 279.042C45.5 279.042 77.2579 274.024 90.5111 254.475C103.764 234.927 107.167 188.084 107.167 188.084Z" fill="white" fill-opacity="0.1"/>
<path d="M309.896 -90.959C309.896 -90.959 312.49 -44.116 322.596 -24.5677C332.701 -5.0193 356.917 -0.00065136 356.917 -0.00065136C356.917 -0.00065136 332.701 5.018 322.596 24.5664C312.49 44.1147 309.896 90.9577 309.896 90.9577C309.896 90.9577 307.301 44.1147 297.196 24.5664C287.09 5.018 262.875 -0.00065136 262.875 -0.00065136C262.875 -0.00065136 287.09 -5.0193 297.196 -24.5677C307.301 -44.116 309.896 -90.959 309.896 -90.959Z" fill="white" fill-opacity="0.1"/>
<path d="M107.939 30.834C107.939 30.834 110.533 54.6524 120.639 64.5923C130.744 74.5321 154.96 77.084 154.96 77.084C154.96 77.084 130.744 79.6358 120.639 89.5757C110.533 99.5155 107.939 123.334 107.939 123.334C107.939 123.334 105.344 99.5155 95.2389 89.5757C85.1334 79.6358 60.918 77.084 60.918 77.084C60.918 77.084 85.1334 74.5321 95.2389 64.5923C105.344 54.6524 107.939 30.834 107.939 30.834Z" fill="white" fill-opacity="0.1"/>
</g>
<defs>
<clipPath id="clip0_348_7414">
<rect width="397" height="279" rx="30.8333" fill="white"/>
</clipPath>
</defs>
</svg>
