<svg width="44" height="44" viewBox="0 0 44 44" fill="none" xmlns="http://www.w3.org/2000/svg">
<rect width="44" height="44" rx="9" fill="white"/>
<path d="M31 28.75H30.25V13.75C30.25 13.5511 30.171 13.3603 30.0303 13.2197C29.8897 13.079 29.6989 13 29.5 13H24.25C24.0511 13 23.8603 13.079 23.7197 13.2197C23.579 13.3603 23.5 13.5511 23.5 13.75V17.5H19C18.8011 17.5 18.6103 17.579 18.4697 17.7197C18.329 17.8603 18.25 18.0511 18.25 18.25V22H14.5C14.3011 22 14.1103 22.079 13.9697 22.2197C13.829 22.3603 13.75 22.5511 13.75 22.75V28.75H13C12.8011 28.75 12.6103 28.829 12.4697 28.9697C12.329 29.1103 12.25 29.3011 12.25 29.5C12.25 29.6989 12.329 29.8897 12.4697 30.0303C12.6103 30.171 12.8011 30.25 13 30.25H31C31.1989 30.25 31.3897 30.171 31.5303 30.0303C31.671 29.8897 31.75 29.6989 31.75 29.5C31.75 29.3011 31.671 29.1103 31.5303 28.9697C31.3897 28.829 31.1989 28.75 31 28.75ZM25 14.5H28.75V28.75H25V14.5ZM19.75 19H23.5V28.75H19.75V19ZM15.25 23.5H18.25V28.75H15.25V23.5Z" fill="#8E72D7"/>
</svg>
