<svg width="44" height="44" viewBox="0 0 44 44" fill="none" xmlns="http://www.w3.org/2000/svg">
<rect width="44" height="44" rx="9" fill="white"/>
<path d="M28.375 18.25C27.9378 18.2495 27.5074 18.3588 27.1234 18.5678C27.0086 18.2123 26.8192 17.8854 26.5679 17.6089C26.3166 17.3324 26.0091 17.1128 25.6661 16.9647C25.3231 16.8166 24.9525 16.7434 24.5789 16.75C24.2054 16.7566 23.8375 16.8429 23.5 17.0031V14.125C23.5 13.4288 23.2234 12.7611 22.7311 12.2688C22.2389 11.7766 21.5712 11.5 20.875 11.5C20.1788 11.5 19.5111 11.7766 19.0188 12.2688C18.5265 12.7611 18.25 13.4288 18.25 14.125V21.625L17.8919 21.0503C17.7187 20.7521 17.4885 20.4909 17.2144 20.2816C16.9403 20.0723 16.6276 19.9191 16.2943 19.8306C15.6211 19.652 14.9045 19.7481 14.3022 20.0978C13.6998 20.4475 13.2611 21.0222 13.0825 21.6954C12.9038 22.3686 13 23.0852 13.3497 23.6875L13.7875 24.4591C17.0134 30.1459 18.3484 32.5 22.75 32.5C24.9373 32.4975 27.0342 31.6275 28.5809 30.0809C30.1275 28.5343 30.9975 26.4373 31 24.25V20.875C31 20.1788 30.7234 19.5111 30.2311 19.0188C29.7389 18.5266 29.0712 18.25 28.375 18.25ZM29.5 24.25C29.498 26.0396 28.7862 27.7553 27.5208 29.0208C26.2553 30.2862 24.5396 30.998 22.75 31C19.2222 31 18.265 29.3125 15.0925 23.7175L14.6528 22.9422V22.9375C14.5035 22.6794 14.4628 22.3725 14.5396 22.0844C14.6164 21.7963 14.8045 21.5505 15.0625 21.4009C15.2334 21.302 15.4275 21.2502 15.625 21.2509C15.8227 21.2506 16.0171 21.3025 16.1884 21.4012C16.3598 21.5 16.502 21.6422 16.6009 21.8134C16.6047 21.8209 16.6091 21.8282 16.614 21.835L18.3644 24.6475C18.4507 24.7854 18.5796 24.8915 18.7316 24.9497C18.8836 25.008 19.0504 25.0152 19.2068 24.9703C19.3632 24.9254 19.5008 24.8309 19.5988 24.701C19.6968 24.571 19.7499 24.4127 19.75 24.25V14.125C19.75 13.8266 19.8685 13.5405 20.0795 13.3295C20.2905 13.1185 20.5766 13 20.875 13C21.1734 13 21.4595 13.1185 21.6705 13.3295C21.8815 13.5405 22 13.8266 22 14.125V20.5C22 20.6989 22.079 20.8897 22.2197 21.0303C22.3603 21.171 22.5511 21.25 22.75 21.25C22.9489 21.25 23.1397 21.171 23.2803 21.0303C23.421 20.8897 23.5 20.6989 23.5 20.5V19.375C23.5 19.0766 23.6185 18.7905 23.8295 18.5795C24.0405 18.3685 24.3266 18.25 24.625 18.25C24.9234 18.25 25.2095 18.3685 25.4205 18.5795C25.6315 18.7905 25.75 19.0766 25.75 19.375V21.25C25.75 21.4489 25.829 21.6397 25.9697 21.7803C26.1103 21.921 26.3011 22 26.5 22C26.6989 22 26.8897 21.921 27.0303 21.7803C27.171 21.6397 27.25 21.4489 27.25 21.25V20.875C27.25 20.5766 27.3685 20.2905 27.5795 20.0795C27.7905 19.8685 28.0766 19.75 28.375 19.75C28.6734 19.75 28.9595 19.8685 29.1705 20.0795C29.3815 20.2905 29.5 20.5766 29.5 20.875V24.25Z" fill="#8E72D7"/>
</svg>
