<svg width="44" height="44" viewBox="0 0 44 44" fill="none" xmlns="http://www.w3.org/2000/svg">
<rect width="44" height="44" rx="9" fill="white"/>
<path d="M31.5156 20.5933L25.5681 18.4314L23.4062 12.4839C23.2997 12.1968 23.1078 11.9492 22.8564 11.7744C22.6051 11.5996 22.3062 11.5059 22 11.5059C21.6938 11.5059 21.3949 11.5996 21.1435 11.7744C20.8922 11.9492 20.7003 12.1968 20.5937 12.4839L18.4319 18.4314L12.4844 20.5933C12.1973 20.6998 11.9497 20.8917 11.7749 21.143C11.6001 21.3944 11.5063 21.6933 11.5063 21.9995C11.5063 22.3057 11.6001 22.6046 11.7749 22.856C11.9497 23.1073 12.1973 23.2992 12.4844 23.4058L18.4319 25.5686L20.5937 31.5151C20.7003 31.8022 20.8922 32.0498 21.1435 32.2246C21.3949 32.3994 21.6938 32.4932 22 32.4932C22.3062 32.4932 22.6051 32.3994 22.8564 32.2246C23.1078 32.0498 23.2997 31.8022 23.4062 31.5151L25.5691 25.5676L31.5156 23.4058C31.8027 23.2992 32.0503 23.1073 32.2251 22.856C32.3999 22.6046 32.4936 22.3057 32.4936 21.9995C32.4936 21.6933 32.3999 21.3944 32.2251 21.143C32.0503 20.8917 31.8027 20.6998 31.5156 20.5933ZM24.7262 24.2776C24.6234 24.3151 24.5299 24.3746 24.4525 24.452C24.3751 24.5295 24.3156 24.6229 24.2781 24.7258L22 30.9901L19.7219 24.7258C19.6844 24.6229 19.6249 24.5295 19.5475 24.452C19.47 24.3746 19.3766 24.3151 19.2737 24.2776L13.0094 21.9995L19.2737 19.7214C19.3766 19.6839 19.47 19.6244 19.5475 19.547C19.6249 19.4696 19.6844 19.3761 19.7219 19.2733L22 13.0089L24.2781 19.2733C24.3156 19.3761 24.3751 19.4696 24.4525 19.547C24.5299 19.6244 24.6234 19.6839 24.7262 19.7214L30.9906 21.9995L24.7262 24.2776Z" fill="#8E72D7"/>
</svg>
