<svg width="44" height="44" viewBox="0 0 44 44" fill="none" xmlns="http://www.w3.org/2000/svg">
<rect width="44" height="44" rx="9" fill="white"/>
<path d="M31.1744 19.6394C30.8209 19.27 30.4553 18.8894 30.3175 18.5547C30.19 18.2481 30.1825 17.74 30.175 17.2478C30.1609 16.3328 30.1459 15.2959 29.425 14.575C28.7041 13.8541 27.6672 13.8391 26.7522 13.825C26.26 13.8175 25.7519 13.81 25.4453 13.6825C25.1116 13.5447 24.73 13.1791 24.3606 12.8256C23.7137 12.2041 22.9787 11.5 22 11.5C21.0213 11.5 20.2872 12.2041 19.6394 12.8256C19.27 13.1791 18.8894 13.5447 18.5547 13.6825C18.25 13.81 17.74 13.8175 17.2478 13.825C16.3328 13.8391 15.2959 13.8541 14.575 14.575C13.8541 15.2959 13.8437 16.3328 13.825 17.2478C13.8175 17.74 13.81 18.2481 13.6825 18.5547C13.5447 18.8884 13.1791 19.27 12.8256 19.6394C12.2041 20.2862 11.5 21.0213 11.5 22C11.5 22.9787 12.2041 23.7128 12.8256 24.3606C13.1791 24.73 13.5447 25.1106 13.6825 25.4453C13.81 25.7519 13.8175 26.26 13.825 26.7522C13.8391 27.6672 13.8541 28.7041 14.575 29.425C15.2959 30.1459 16.3328 30.1609 17.2478 30.175C17.74 30.1825 18.2481 30.19 18.5547 30.3175C18.8884 30.4553 19.27 30.8209 19.6394 31.1744C20.2862 31.7959 21.0213 32.5 22 32.5C22.9787 32.5 23.7128 31.7959 24.3606 31.1744C24.73 30.8209 25.1106 30.4553 25.4453 30.3175C25.7519 30.19 26.26 30.1825 26.7522 30.175C27.6672 30.1609 28.7041 30.1459 29.425 29.425C30.1459 28.7041 30.1609 27.6672 30.175 26.7522C30.1825 26.26 30.19 25.7519 30.3175 25.4453C30.4553 25.1116 30.8209 24.73 31.1744 24.3606C31.7959 23.7137 32.5 22.9787 32.5 22C32.5 21.0213 31.7959 20.2872 31.1744 19.6394ZM30.0916 23.3228C29.6425 23.7916 29.1775 24.2763 28.9309 24.8716C28.6947 25.4434 28.6844 26.0969 28.675 26.7297C28.6656 27.3859 28.6553 28.0731 28.3638 28.3638C28.0722 28.6544 27.3897 28.6656 26.7297 28.675C26.0969 28.6844 25.4434 28.6947 24.8716 28.9309C24.2763 29.1775 23.7916 29.6425 23.3228 30.0916C22.8541 30.5406 22.375 31 22 31C21.625 31 21.1422 30.5387 20.6772 30.0916C20.2122 29.6444 19.7238 29.1775 19.1284 28.9309C18.5566 28.6947 17.9031 28.6844 17.2703 28.675C16.6141 28.6656 15.9269 28.6553 15.6362 28.3638C15.3456 28.0722 15.3344 27.3897 15.325 26.7297C15.3156 26.0969 15.3053 25.4434 15.0691 24.8716C14.8225 24.2763 14.3575 23.7916 13.9084 23.3228C13.4594 22.8541 13 22.375 13 22C13 21.625 13.4612 21.1422 13.9084 20.6772C14.3556 20.2122 14.8225 19.7238 15.0691 19.1284C15.3053 18.5566 15.3156 17.9031 15.325 17.2703C15.3344 16.6141 15.3447 15.9269 15.6362 15.6362C15.9278 15.3456 16.6103 15.3344 17.2703 15.325C17.9031 15.3156 18.5566 15.3053 19.1284 15.0691C19.7238 14.8225 20.2084 14.3575 20.6772 13.9084C21.1459 13.4594 21.625 13 22 13C22.375 13 22.8578 13.4612 23.3228 13.9084C23.7878 14.3556 24.2763 14.8225 24.8716 15.0691C25.4434 15.3053 26.0969 15.3156 26.7297 15.325C27.3859 15.3344 28.0731 15.3447 28.3638 15.6362C28.6544 15.9278 28.6656 16.6103 28.675 17.2703C28.6844 17.9031 28.6947 18.5566 28.9309 19.1284C29.1775 19.7238 29.6425 20.2084 30.0916 20.6772C30.5406 21.1459 31 21.625 31 22C31 22.375 30.5387 22.8578 30.0916 23.3228ZM26.2806 19.2194C26.3504 19.289 26.4057 19.3717 26.4434 19.4628C26.4812 19.5538 26.5006 19.6514 26.5006 19.75C26.5006 19.8486 26.4812 19.9462 26.4434 20.0372C26.4057 20.1283 26.3504 20.211 26.2806 20.2806L21.0306 25.5306C20.961 25.6004 20.8783 25.6557 20.7872 25.6934C20.6962 25.7312 20.5986 25.7506 20.5 25.7506C20.4014 25.7506 20.3038 25.7312 20.2128 25.6934C20.1217 25.6557 20.039 25.6004 19.9694 25.5306L17.7194 23.2806C17.5786 23.1399 17.4996 22.949 17.4996 22.75C17.4996 22.551 17.5786 22.3601 17.7194 22.2194C17.8601 22.0786 18.051 21.9996 18.25 21.9996C18.449 21.9996 18.6399 22.0786 18.7806 22.2194L20.5 23.9397L25.2194 19.2194C25.289 19.1496 25.3717 19.0943 25.4628 19.0566C25.5538 19.0188 25.6514 18.9994 25.75 18.9994C25.8486 18.9994 25.9462 19.0188 26.0372 19.0566C26.1283 19.0943 26.211 19.1496 26.2806 19.2194Z" fill="#8E72D7"/>
</svg>
