<svg width="44" height="44" viewBox="0 0 44 44" fill="none" xmlns="http://www.w3.org/2000/svg">
<rect width="44" height="44" rx="9" fill="white"/>
<path d="M22.7501 17.4994V21.5747L26.1363 23.6062C26.3069 23.7087 26.4298 23.8747 26.478 24.0677C26.5261 24.2608 26.4956 24.465 26.3932 24.6356C26.2908 24.8062 26.1248 24.9291 25.9317 24.9772C25.7387 25.0254 25.5344 24.9949 25.3638 24.8925L21.6138 22.6425C21.5028 22.5758 21.411 22.4815 21.3473 22.3688C21.2835 22.2561 21.25 22.1288 21.2501 21.9994V17.4994C21.2501 17.3004 21.3291 17.1097 21.4697 16.969C21.6104 16.8284 21.8012 16.7494 22.0001 16.7494C22.199 16.7494 22.3898 16.8284 22.5304 16.969C22.6711 17.1097 22.7501 17.3004 22.7501 17.4994ZM31.0001 15.2494C30.8012 15.2494 30.6104 15.3284 30.4697 15.469C30.3291 15.6097 30.2501 15.8004 30.2501 15.9994V17.6869C29.6548 16.9969 29.0473 16.3322 28.3638 15.6403C27.1131 14.3894 25.5214 13.5348 23.7877 13.1833C22.0541 12.8319 20.2552 12.9991 18.6161 13.6641C16.9769 14.3291 15.57 15.4624 14.5713 16.9225C13.5725 18.3825 13.0262 20.1044 13.0005 21.8732C12.9748 23.642 13.4709 25.3791 14.4268 26.8675C15.3827 28.3559 16.7561 29.5296 18.3753 30.2419C19.9945 30.9543 21.7876 31.1737 23.5308 30.8727C25.274 30.5717 26.8898 29.7637 28.1763 28.5497C28.248 28.482 28.3056 28.4008 28.3459 28.3108C28.3862 28.2208 28.4083 28.1238 28.4111 28.0253C28.4139 27.9267 28.3972 27.8286 28.3621 27.7365C28.327 27.6444 28.274 27.5601 28.2063 27.4884C28.1386 27.4168 28.0574 27.3592 27.9675 27.3189C27.8775 27.2786 27.7805 27.2564 27.6819 27.2536C27.5834 27.2508 27.4852 27.2675 27.3931 27.3026C27.301 27.3378 27.2167 27.3907 27.1451 27.4584C26.0726 28.4691 24.7262 29.1415 23.2739 29.3915C21.8216 29.6416 20.3278 29.4582 18.9791 28.8644C17.6304 28.2706 16.4865 27.2926 15.6902 26.0526C14.894 24.8125 14.4808 23.3654 14.5021 21.8919C14.5234 20.4184 14.9783 18.9838 15.81 17.7673C16.6418 16.5508 17.8134 15.6062 19.1788 15.0517C20.5441 14.4971 22.0425 14.357 23.487 14.6489C24.9315 14.9408 26.2579 15.6518 27.3007 16.6931C28.0638 17.4656 28.7323 18.21 29.4063 18.9994H27.2501C27.0512 18.9994 26.8604 19.0784 26.7197 19.219C26.5791 19.3597 26.5001 19.5504 26.5001 19.7494C26.5001 19.9483 26.5791 20.139 26.7197 20.2797C26.8604 20.4203 27.0512 20.4994 27.2501 20.4994H31.0001C31.199 20.4994 31.3898 20.4203 31.5304 20.2797C31.6711 20.139 31.7501 19.9483 31.7501 19.7494V15.9994C31.7501 15.8004 31.6711 15.6097 31.5304 15.469C31.3898 15.3284 31.199 15.2494 31.0001 15.2494Z" fill="#8E72D7"/>
</svg>
