<svg width="86" height="87" viewBox="0 0 86 87" fill="none" xmlns="http://www.w3.org/2000/svg">
<path d="M42.9992 0.700073L43.979 28.5521L48.5857 1.06623L45.9217 28.8079L54.0767 2.15845L47.8144 29.3151L59.3781 3.95803L49.6247 30.0649L64.3992 6.43418L51.3217 31.0447L69.0542 9.54455L52.8762 32.2375L73.2634 13.2359L54.2618 33.6231L76.9547 17.4451L55.4546 35.1776L80.0651 22.1001L56.4344 36.8746L82.5413 27.1212L57.1842 38.6849L84.3408 32.4226L57.6914 40.5776L85.4331 37.9136L57.9471 42.5203L85.7992 43.5001L57.9471 44.4798L85.4331 49.0866L57.6914 46.4225L84.3408 54.5775L57.1842 48.3152L82.5413 59.8789L56.4344 50.1256L80.0651 64.9001L55.4546 51.8225L76.9547 69.5551L54.2618 53.3771L73.2634 73.7642L52.8762 54.7626L69.0542 77.4556L51.3217 55.9555L64.3992 80.566L49.6247 56.9352L59.3781 83.0421L47.8144 57.6851L54.0767 84.8417L45.9217 58.1922L48.5857 85.9339L43.979 58.448L42.9992 86.3001L42.0195 58.448L37.4127 85.9339L40.0768 58.1922L31.9218 84.8417L38.1841 57.6851L26.6204 83.0421L36.3737 56.9352L21.5992 80.566L34.6768 55.9555L16.9442 77.4556L33.1222 54.7626L12.735 73.7642L31.7367 53.3771L9.0437 69.5551L30.5438 51.8225L5.93333 64.9001L29.5641 50.1256L3.45718 59.8789L28.8142 48.3152L1.6576 54.5775L28.3071 46.4225L0.565378 49.0866L28.0513 44.4798L0.199219 43.5001L28.0513 42.5203L0.565378 37.9136L28.3071 40.5776L1.6576 32.4226L28.8142 38.6849L3.45718 27.1212L29.5641 36.8746L5.93333 22.1001L30.5438 35.1776L9.0437 17.4451L31.7367 33.6231L12.735 13.2359L33.1222 32.2375L16.9442 9.54455L34.6768 31.0447L21.5992 6.43418L36.3737 30.0649L26.6204 3.95803L38.1841 29.3151L31.9218 2.15845L40.0768 28.8079L37.4127 1.06623L42.0195 28.5521L42.9992 0.700073Z" fill="url(#paint0_radial_454_4546)"/>
<defs>
<radialGradient id="paint0_radial_454_4546" cx="0" cy="0" r="1" gradientUnits="userSpaceOnUse" gradientTransform="translate(42.9992 41.8951) rotate(81.3843) scale(53.5695)">
<stop stop-color="white"/>
<stop offset="1" stop-color="#FFF9F9" stop-opacity="0"/>
</radialGradient>
</defs>
</svg>
