<svg width="78" height="86" viewBox="0 0 78 86" fill="none" xmlns="http://www.w3.org/2000/svg">
<path d="M38.9998 0.599854C38.9998 0.599854 40.7405 21.7118 41.0673 38.0905C50.4964 29.2056 63.029 19.0149 63.029 19.0149C63.029 19.0149 52.8607 31.52 43.9827 40.9455C58.6393 41.3032 77.1598 42.9999 77.1598 42.9999C77.1598 42.9999 58.6028 44.6999 43.9394 45.0552C52.8172 54.4807 62.9849 66.985 62.9849 66.985C62.9849 66.985 50.4906 56.8254 41.0665 47.9502C40.7376 64.3231 38.9998 85.3999 38.9998 85.3999C38.9998 85.3999 37.265 64.3581 36.934 47.991C27.515 56.8566 15.0589 66.9851 15.0589 66.9851C15.0589 66.9851 25.2259 54.4816 34.1035 45.0563C19.4333 44.7032 0.839844 42.9999 0.839844 42.9999C0.839844 42.9999 19.3968 41.2999 34.0602 40.9445C25.1824 31.5191 15.0148 19.0149 15.0148 19.0149C15.0148 19.0149 27.5091 29.1744 36.9332 38.0497C37.2621 21.6767 38.9998 0.599854 38.9998 0.599854Z" fill="url(#paint0_radial_454_4558)"/>
<defs>
<radialGradient id="paint0_radial_454_4558" cx="0" cy="0" r="1" gradientUnits="userSpaceOnUse" gradientTransform="translate(38.9998 41.4099) rotate(57.4396) scale(52.1936 40.3799)">
<stop stop-color="white"/>
<stop offset="1" stop-color="#3A3A3A" stop-opacity="0.73"/>
</radialGradient>
</defs>
</svg>
