<svg width="86" height="86" viewBox="0 0 86 86" fill="none" xmlns="http://www.w3.org/2000/svg">
<path fill-rule="evenodd" clip-rule="evenodd" d="M26.9172 15.1436C22.4563 12.7382 17.3516 11.373 11.9281 11.373C11.6217 11.373 11.3733 11.6214 11.3733 11.9279C11.3733 17.3514 12.7384 22.4561 15.1439 26.9171C10.0779 27.0644 4.97447 28.4345 0.277521 31.1462C0.012137 31.2995 -0.0787899 31.6388 0.0744292 31.9042C2.7862 36.6011 6.52081 40.3393 10.8345 42.9999C6.52082 45.6604 2.78621 49.3986 0.0744476 54.0956C-0.0787715 54.3609 0.0121557 54.7003 0.277539 54.8535C4.97445 57.5653 10.0778 58.9353 15.1438 59.0826C12.7384 63.5436 11.3733 68.6482 11.3733 74.0717C11.3733 74.3782 11.6217 74.6266 11.9281 74.6266C17.3516 74.6266 22.4563 73.2614 26.9172 70.856C27.0645 75.922 28.4346 81.0254 31.1464 85.7224C31.2996 85.9877 31.6389 86.0787 31.9043 85.9254C36.6012 83.2137 40.3394 79.4791 43 75.1654C45.6606 79.4791 49.3988 83.2137 54.0957 85.9254C54.3611 86.0787 54.7004 85.9877 54.8537 85.7224C57.5654 81.0254 58.9355 75.922 59.0828 70.8559C63.5437 73.2614 68.6484 74.6266 74.072 74.6266C74.3784 74.6266 74.6268 74.3782 74.6268 74.0717C74.6268 68.6482 73.2617 63.5436 70.8563 59.0826C75.9222 58.9353 81.0256 57.5653 85.7225 54.8535C85.9879 54.7003 86.0788 54.3609 85.9256 54.0956C83.2138 49.3986 79.4792 45.6604 75.1656 42.9999C79.4792 40.3393 83.2138 36.6011 85.9256 31.9042C86.0788 31.6388 85.9879 31.2995 85.7225 31.1462C81.0256 28.4345 75.9222 27.0644 70.8562 26.9171C73.2616 22.4561 74.6268 17.3514 74.6268 11.9279C74.6268 11.6214 74.3784 11.373 74.072 11.373C68.6484 11.373 63.5437 12.7382 59.0828 15.1436C58.9355 10.0776 57.5654 4.9743 54.8536 0.277398C54.7004 0.0120152 54.3611 -0.078912 54.0957 0.0743071C49.3988 2.78607 45.6606 6.52068 43 10.8343C40.3394 6.52068 36.6012 2.78607 31.9043 0.0743071C31.6389 -0.078912 31.2996 0.0120152 31.1464 0.277398C28.4346 4.97428 27.0646 10.0776 26.9172 15.1436ZM40.0355 37.8651C37.7136 35.1694 34.9953 32.9377 32.0202 31.2073C29.5648 26.8908 28.1946 22.0287 28.0305 17.0719C32.2411 19.6924 35.7668 23.31 38.2772 27.5946C38.2882 31.0364 38.8618 34.5064 40.0355 37.8651ZM38.3345 25.5878C35.6883 21.5827 32.1553 18.215 28.0153 15.7643C28.0632 10.8585 29.2967 5.89898 31.8318 1.31965C36.317 4.01791 39.865 7.69626 42.3594 11.9209C39.9994 16.1132 38.6237 20.7962 38.3345 25.5878ZM39.479 29.8594C39.7626 33.4937 40.704 37.1241 42.3503 40.5749C42.0506 36.7633 41.0507 33.1486 39.479 29.8594ZM29.86 39.479C33.4941 39.7625 37.1242 40.7039 40.5747 42.35C36.7634 42.0503 33.149 41.0504 29.86 39.479ZM27.5951 38.2771C31.0367 38.2881 34.5066 38.8617 37.8653 40.0353C35.1696 37.7134 32.9378 34.9952 31.2074 32.0201C26.891 29.5647 22.0289 28.1945 17.0722 28.0304C19.6928 32.241 23.3105 35.7666 27.5951 38.2771ZM15.7646 28.0151C18.2153 32.1551 21.5831 35.6881 25.5882 38.3343C20.7965 38.6235 16.1134 39.9993 11.921 42.3593C7.69639 39.8649 4.01803 36.3169 1.31977 31.8317C5.89917 29.2965 10.8587 28.0631 15.7646 28.0151ZM16.4052 26.9056C21.2159 26.958 25.9594 28.108 30.2536 30.2535C28.1082 25.9592 26.9581 21.2156 26.9058 16.4049C22.6332 13.9935 17.7214 12.5819 12.488 12.4877C12.5822 17.7212 13.9937 22.633 16.4052 26.9056ZM57.9847 15.7643C57.9368 10.8585 56.7033 5.899 54.1682 1.31965C49.683 4.01791 46.135 7.69626 43.6406 11.9209C46.0006 16.1132 47.3764 20.7963 47.6655 25.5879C50.3118 21.5828 53.8447 18.215 57.9847 15.7643ZM47.7228 27.5947C50.2333 23.3101 53.7589 19.6924 57.9695 17.0719C57.8054 22.0287 56.4352 26.8908 53.9798 31.2073C51.0047 32.9377 48.2865 35.1694 45.9646 37.8651C47.1382 34.5064 47.7118 31.0364 47.7228 27.5947ZM43.6499 40.5747C45.2961 37.1241 46.2374 33.4938 46.521 29.8595C44.9494 33.1487 43.9495 36.7633 43.6499 40.5747ZM46.6125 27.2972C44.9012 30.2833 43.663 33.5752 43 37.0707C42.3371 33.5752 41.0988 30.2832 39.3875 27.2971C39.4193 22.3314 40.6638 17.4356 43 13.0609C45.3362 17.4356 46.5807 22.3314 46.6125 27.2972ZM59.0942 16.4049C63.3668 13.9935 68.2786 12.5819 73.5121 12.4877C73.4179 17.7212 72.0063 22.633 69.5949 26.9056C64.7842 26.958 60.0407 28.108 55.7464 30.2535C57.8919 25.9592 59.0419 21.2156 59.0942 16.4049ZM68.9279 28.0304C63.9711 28.1945 59.109 29.5647 54.7926 32.0201C53.0622 34.9952 50.8305 37.7134 48.1347 40.0353C51.4934 38.8617 54.9633 38.2881 58.405 38.2771C62.6896 35.7666 66.3073 32.241 68.9279 28.0304ZM45.4253 42.35C49.2366 42.0503 52.8511 41.0504 56.1401 39.479C52.506 39.7625 48.8758 40.7038 45.4253 42.35ZM58.7025 39.3874C63.6683 39.4192 68.5642 40.6636 72.939 42.9999C68.5643 45.3361 63.6685 46.5805 58.7028 46.6123C55.7167 44.901 52.4247 43.6628 48.9291 42.9998C52.4246 42.3368 55.7164 41.0986 58.7025 39.3874ZM45.4249 43.6496C48.8757 45.2959 52.5061 46.2373 56.1406 46.5208C52.8513 44.9492 49.2365 43.9492 45.4249 43.6496ZM58.4053 47.7227C62.6899 50.2331 66.3075 53.7587 68.928 57.9694C63.9712 57.8052 59.1091 56.4351 54.7927 53.9797C53.0622 51.0046 50.8305 48.2863 48.1347 45.9644C51.4935 47.1381 54.9636 47.7117 58.4053 47.7227ZM70.2356 57.9846C67.7849 53.8446 64.4172 50.3116 60.4121 47.6654C65.2037 47.3762 69.8867 46.0004 74.079 43.6404C78.3036 46.1349 81.982 49.6829 84.6802 54.1681C80.1009 56.7032 75.1414 57.9367 70.2356 57.9846ZM69.595 59.0941C64.7843 59.0418 60.0407 57.8917 55.7464 55.7463C57.8918 60.0405 59.0419 64.784 59.0942 69.5947C63.3668 72.0061 68.2786 73.4177 73.5121 73.5118C73.4179 68.2784 72.0064 63.3667 69.595 59.0941ZM57.9695 68.9277C57.8053 63.9709 56.4352 59.1089 53.9798 54.7925C51.0047 53.0621 48.2864 50.8303 45.9645 48.1346C47.1381 51.4933 47.7118 54.9632 47.7228 58.4048C50.2332 62.6894 53.7589 66.3071 57.9695 68.9277ZM43.6499 45.4251C43.9495 49.2364 44.9494 52.8509 46.5209 56.1399C46.2373 52.5058 45.296 48.8756 43.6499 45.4251ZM46.6125 58.7023C46.5807 63.6682 45.3363 68.564 43 72.9388C40.6638 68.564 39.4193 63.6682 39.3876 58.7024C41.0988 55.7163 42.3371 52.4244 43 48.9289C43.663 52.4244 44.9012 55.7162 46.6125 58.7023ZM39.4791 56.1401C39.7627 52.5059 40.704 48.8756 42.3502 45.425C42.0506 49.2364 41.0507 52.851 39.4791 56.1401ZM38.2772 58.4049C35.7668 62.6895 32.2411 66.3072 28.0305 68.9277C28.1947 63.971 29.5648 59.1089 32.0202 54.7925C34.9953 53.0621 37.7136 50.8303 40.0355 48.1346C38.8619 51.4933 38.2882 54.9633 38.2772 58.4049ZM28.0152 70.2353C32.1553 67.7846 35.6883 64.4169 38.3345 60.4118C38.6236 65.2034 39.9994 69.8865 42.3594 74.0788C39.865 78.3035 36.317 81.9818 31.8318 84.6801C29.2966 80.1007 28.0632 75.1412 28.0152 70.2353ZM26.9058 69.5947C26.9581 64.784 28.1082 60.0405 30.2536 55.7463C25.9593 57.8917 21.2158 59.0418 16.4051 59.0941C13.9937 63.3667 12.5822 68.2784 12.488 73.5118C17.7214 73.4177 22.6332 72.0061 26.9058 69.5947ZM17.0721 57.9694C22.0289 57.8052 26.891 56.435 31.2074 53.9797C32.9378 51.0046 35.1695 48.2863 37.8653 45.9644C34.5065 47.138 31.0365 47.7117 27.5948 47.7227C23.3102 50.2331 19.6926 53.7587 17.0721 57.9694ZM27.2973 46.6123C22.3315 46.5805 17.4358 45.3361 13.061 42.9999C17.4359 40.6636 22.3317 39.4192 27.2976 39.3874C30.2836 41.0986 33.5755 42.3368 37.071 42.9998C33.5754 43.6628 30.2834 44.901 27.2973 46.6123ZM29.8595 46.5208C33.1488 44.9492 36.7635 43.9492 40.5751 43.6496C37.1244 45.2959 33.4939 46.2373 29.8595 46.5208ZM25.588 47.6654C21.5829 50.3116 18.2152 53.8446 15.7645 57.9846C10.8587 57.9367 5.89915 56.7032 1.31979 54.1681C4.01805 49.6829 7.6964 46.1349 11.921 43.6404C16.1133 46.0005 20.7964 47.3762 25.588 47.6654ZM47.6655 60.4117C50.3118 64.4168 53.8447 67.7846 57.9848 70.2352C57.9368 75.1411 56.7034 80.1007 54.1682 84.6801C49.683 81.9818 46.135 78.3035 43.6406 74.0788C46.0006 69.8865 47.3764 65.2034 47.6655 60.4117ZM60.4119 38.3344C64.417 35.6881 67.7848 32.1551 70.2355 28.0151C75.1413 28.0631 80.1009 29.2965 84.6802 31.8317C81.982 36.3169 78.3036 39.8649 74.079 42.3593C69.8866 39.9993 65.2035 38.6235 60.4119 38.3344ZM52.6193 33.3805C49.6138 35.4432 46.9406 38.0736 44.7753 41.2245C47.9263 39.0593 50.5567 36.3861 52.6193 33.3805ZM52.6194 52.6193C50.5567 49.6137 47.9263 46.9404 44.7753 44.7752C46.9405 47.9262 49.6138 50.5565 52.6194 52.6193ZM41.2247 44.7752C39.0595 47.9262 36.3862 50.5565 33.3806 52.6193C35.4433 49.6137 38.0737 46.9404 41.2247 44.7752ZM41.2247 41.2245C38.0737 39.0593 35.4434 36.3861 33.3807 33.3805C36.3862 35.4432 39.0595 38.0736 41.2247 41.2245Z" fill="url(#paint0_radial_454_4535)"/>
<defs>
<radialGradient id="paint0_radial_454_4535" cx="0" cy="0" r="1" gradientUnits="userSpaceOnUse" gradientTransform="translate(43.0001 42.9996) rotate(90) scale(34.9559)">
<stop stop-color="white"/>
<stop offset="1" stop-color="white" stop-opacity="0.15"/>
</radialGradient>
</defs>
</svg>
