<svg width="59" height="59" viewBox="0 0 59 59" fill="none" xmlns="http://www.w3.org/2000/svg">
<g clip-path="url(#clip0_265_8256)">
<g filter="url(#filter0_d_265_8256)">
<path fill-rule="evenodd" clip-rule="evenodd" d="M38.0286 0.450195C43.8128 0.450195 46.7041 0.450195 49.8178 1.43447C53.2171 2.67177 55.8943 5.34899 57.1316 8.74833C58.1159 11.8615 58.1159 14.7538 58.1159 20.5375V37.9788C58.1159 43.7629 58.1159 46.6543 57.1316 49.768C55.8943 53.1673 53.2171 55.8445 49.8178 57.0813C46.7041 58.0661 43.8128 58.0661 38.0286 58.0661H20.5873C14.8031 58.0661 11.9113 58.0661 8.79813 57.0813C5.39879 55.8445 2.72157 53.1673 1.48427 49.768C0.5 46.6543 0.5 43.7629 0.5 37.9788V20.5375C0.5 14.7538 0.5 11.8615 1.48427 8.74833C2.72157 5.34899 5.39879 2.67177 8.79813 1.43447C11.9113 0.450195 14.8031 0.450195 20.5873 0.450195H38.0286Z" fill="#937BD0"/>
<path d="M30.7584 40.0554C30.7904 36.7845 29.9611 34.1246 28.9063 34.1143C27.8514 34.104 26.9703 36.7472 26.9384 40.0181C26.9064 43.289 27.7357 45.949 28.7905 45.9592C29.8454 45.9696 30.7265 43.3264 30.7584 40.0554Z" fill="white"/>
<path d="M24.6412 39.3181C26.4366 36.5838 27.1772 33.8979 26.2954 33.3188C25.4135 32.7398 23.2432 34.487 21.4479 37.2213C19.6524 39.9556 18.9118 42.6415 19.7936 43.2206C20.6755 43.7996 22.8457 42.0524 24.6412 39.3181Z" fill="white"/>
<path d="M19.8885 35.3954C22.8772 34.0661 24.9525 32.207 24.5237 31.2431C24.095 30.2792 21.3246 30.5755 18.3359 31.905C15.3472 33.2344 13.2719 35.0935 13.7006 36.0573C14.1294 37.0212 16.8998 36.7249 19.8885 35.3954Z" fill="white"/>
<path d="M24.1642 28.5354C24.3247 27.4927 21.8339 26.2441 18.601 25.7465C15.368 25.2488 12.617 25.6907 12.4566 26.7334C12.2961 27.776 14.7868 29.0246 18.0198 29.5222C21.2528 30.0198 24.0038 29.5779 24.1642 28.5354Z" fill="white"/>
<path d="M25.3272 26.0507C26.0258 25.2603 24.6052 22.8634 22.1542 20.6972C19.7032 18.5311 17.15 17.4158 16.4514 18.2063C15.7528 18.9967 17.1734 21.3936 19.6244 23.5598C22.0754 25.7259 24.6287 26.8412 25.3272 26.0507Z" fill="white"/>
<path d="M27.6359 24.6027C28.651 24.3155 28.7519 21.5311 27.8612 18.3836C26.9706 15.2362 25.4257 12.9175 24.4106 13.2047C23.3956 13.492 23.2947 16.2763 24.1853 19.4238C25.076 22.5712 26.6209 24.8899 27.6359 24.6027Z" fill="white"/>
<path d="M33.9142 19.5185C34.8668 16.3892 34.8209 13.6034 33.8117 13.2962C32.8025 12.989 31.2122 15.2768 30.2596 18.4061C29.3071 21.5353 29.353 24.3212 30.3622 24.6283C31.3715 24.9355 32.9618 22.6478 33.9142 19.5185Z" fill="white"/>
<path d="M38.3984 23.7489C40.8913 21.6311 42.3586 19.2625 41.6755 18.4585C40.9925 17.6546 38.4179 18.7197 35.925 20.8375C33.4321 22.9554 31.965 25.324 32.648 26.128C33.331 26.9319 35.9056 25.8668 38.3984 23.7489Z" fill="white"/>
<path d="M39.8832 29.7335C43.1254 29.2997 45.6403 28.1005 45.5004 27.0548C45.3605 26.0093 42.6188 25.5133 39.3766 25.947C36.1345 26.3807 33.6196 27.58 33.7595 28.6256C33.8994 29.6712 36.641 30.1673 39.8832 29.7335Z" fill="white"/>
<path d="M44.065 36.3527C44.5127 35.3975 42.4745 33.4979 39.5126 32.1098C36.5507 30.7217 33.7867 30.3708 33.339 31.326C32.8913 32.2812 34.9295 34.1809 37.8915 35.569C40.8534 36.957 43.6174 37.308 44.065 36.3527Z" fill="white"/>
<path d="M37.8332 43.4015C38.7262 42.8401 38.0387 40.14 36.2976 37.3708C34.5565 34.6016 32.421 32.8121 31.528 33.3735C30.6349 33.935 31.3224 36.6351 33.0635 39.4043C34.8047 42.1734 36.9401 43.9631 37.8332 43.4015Z" fill="white"/>
</g>
</g>
<defs>
<filter id="filter0_d_265_8256" x="-9.10265" y="-9.15245" width="76.8215" height="76.8215" filterUnits="userSpaceOnUse" color-interpolation-filters="sRGB">
<feFlood flood-opacity="0" result="BackgroundImageFix"/>
<feColorMatrix in="SourceAlpha" type="matrix" values="0 0 0 0 0 0 0 0 0 0 0 0 0 0 0 0 0 0 127 0" result="hardAlpha"/>
<feOffset/>
<feGaussianBlur stdDeviation="4.80132"/>
<feColorMatrix type="matrix" values="0 0 0 0 0 0 0 0 0 0 0 0 0 0 0 0 0 0 0.1 0"/>
<feBlend mode="normal" in2="BackgroundImageFix" result="effect1_dropShadow_265_8256"/>
<feBlend mode="normal" in="SourceGraphic" in2="effect1_dropShadow_265_8256" result="shape"/>
</filter>
<clipPath id="clip0_265_8256">
<rect width="57.6159" height="57.6159" fill="white" transform="translate(0.5 0.450195)"/>
</clipPath>
</defs>
</svg>
