<svg width="190" height="59" viewBox="0 0 190 59" fill="none" xmlns="http://www.w3.org/2000/svg">
<path d="M84.348 41.0582C82.2787 41.0582 80.5293 40.7275 79.1 40.0662C77.692 39.4049 76.6147 38.4982 75.868 37.3462C75.1213 36.1729 74.748 34.8502 74.748 33.3782H79.196C79.196 33.9969 79.3667 34.6049 79.708 35.2022C80.0493 35.7782 80.5933 36.2475 81.34 36.6102C82.108 36.9729 83.1107 37.1542 84.348 37.1542C85.4573 37.1542 86.3853 36.9942 87.132 36.6742C87.8787 36.3542 88.4333 35.9382 88.796 35.4262C89.1587 34.8929 89.34 34.2955 89.34 33.6342C89.34 32.8022 88.988 32.1409 88.284 31.6502C87.58 31.1382 86.492 30.8182 85.02 30.6902L82.972 30.5302C80.732 30.3382 78.94 29.6449 77.596 28.4502C76.2733 27.2342 75.612 25.6342 75.612 23.6502C75.612 22.1569 75.964 20.8769 76.668 19.8102C77.372 18.7222 78.3533 17.8902 79.612 17.3142C80.892 16.7169 82.3853 16.4182 84.092 16.4182C85.8627 16.4182 87.388 16.7275 88.668 17.3462C89.948 17.9649 90.94 18.8395 91.644 19.9702C92.348 21.0795 92.7 22.3915 92.7 23.9062H88.252C88.252 23.2662 88.092 22.6795 87.772 22.1462C87.4733 21.5915 87.0147 21.1542 86.396 20.8342C85.7987 20.4929 85.0307 20.3222 84.092 20.3222C83.196 20.3222 82.4493 20.4715 81.852 20.7702C81.2547 21.0689 80.8067 21.4742 80.508 21.9862C80.2093 22.4982 80.06 23.0529 80.06 23.6502C80.06 24.3755 80.3267 25.0155 80.86 25.5702C81.3933 26.1035 82.236 26.4129 83.388 26.4982L85.436 26.6902C87.1 26.8182 88.5613 27.1702 89.82 27.7462C91.0787 28.3222 92.0493 29.1009 92.732 30.0822C93.436 31.0635 93.788 32.2475 93.788 33.6342C93.788 35.1062 93.404 36.4075 92.636 37.5382C91.868 38.6475 90.7693 39.5115 89.34 40.1302C87.932 40.7489 86.268 41.0582 84.348 41.0582ZM105.943 41.0582C104.407 41.0582 103.052 40.8129 101.879 40.3222C100.705 39.8315 99.7132 39.1702 98.9025 38.3382C98.0918 37.4849 97.4732 36.5249 97.0465 35.4582C96.6412 34.3915 96.4385 33.2822 96.4385 32.1302V31.4582C96.4385 30.2635 96.6518 29.1329 97.0785 28.0662C97.5265 26.9782 98.1558 26.0182 98.9665 25.1862C99.7985 24.3329 100.801 23.6715 101.975 23.2022C103.148 22.7115 104.471 22.4662 105.943 22.4662C107.415 22.4662 108.737 22.7115 109.911 23.2022C111.084 23.6715 112.076 24.3329 112.887 25.1862C113.719 26.0182 114.348 26.9782 114.775 28.0662C115.201 29.1329 115.415 30.2635 115.415 31.4582V32.1302C115.415 33.2822 115.201 34.3915 114.775 35.4582C114.369 36.5249 113.761 37.4849 112.951 38.3382C112.14 39.1702 111.148 39.8315 109.975 40.3222C108.801 40.8129 107.457 41.0582 105.943 41.0582ZM105.943 37.2502C107.031 37.2502 107.948 37.0155 108.695 36.5462C109.441 36.0555 110.007 35.4049 110.391 34.5942C110.775 33.7622 110.967 32.8235 110.967 31.7782C110.967 30.7115 110.764 29.7729 110.359 28.9622C109.975 28.1302 109.399 27.4795 108.631 27.0102C107.884 26.5195 106.988 26.2742 105.943 26.2742C104.897 26.2742 103.991 26.5195 103.223 27.0102C102.476 27.4795 101.9 28.1302 101.495 28.9622C101.089 29.7729 100.887 30.7115 100.887 31.7782C100.887 32.8235 101.079 33.7622 101.463 34.5942C101.868 35.4049 102.444 36.0555 103.191 36.5462C103.937 37.0155 104.855 37.2502 105.943 37.2502ZM119.309 46.8502V23.0742H122.829V30.5622L122.285 30.5302C122.371 28.7595 122.733 27.2769 123.373 26.0822C124.035 24.8875 124.909 24.0022 125.997 23.4262C127.085 22.8289 128.301 22.5302 129.645 22.5302C130.883 22.5302 131.992 22.7542 132.973 23.2022C133.976 23.6502 134.829 24.2795 135.533 25.0902C136.259 25.9009 136.813 26.8502 137.197 27.9382C137.581 29.0049 137.773 30.1569 137.773 31.3942V32.0662C137.773 33.3249 137.581 34.4982 137.197 35.5862C136.835 36.6529 136.291 37.6022 135.565 38.4342C134.861 39.2449 134.008 39.8849 133.005 40.3542C132.003 40.8022 130.883 41.0262 129.645 41.0262C128.344 41.0262 127.149 40.7595 126.061 40.2262C124.995 39.6715 124.131 38.8289 123.469 37.6982C122.808 36.5462 122.435 35.0635 122.349 33.2502L123.757 35.3942V46.8502H119.309ZM128.525 37.2822C129.485 37.2822 130.317 37.0475 131.021 36.5782C131.747 36.1089 132.312 35.4582 132.717 34.6262C133.123 33.7729 133.325 32.8129 133.325 31.7462C133.325 30.6369 133.123 29.6769 132.717 28.8662C132.312 28.0555 131.747 27.4262 131.021 26.9782C130.317 26.5089 129.485 26.2742 128.525 26.2742C127.651 26.2742 126.84 26.4662 126.093 26.8502C125.368 27.2342 124.771 27.7995 124.301 28.5462C123.853 29.2929 123.629 30.1889 123.629 31.2342V32.5142C123.629 33.5169 123.864 34.3702 124.333 35.0742C124.803 35.7782 125.411 36.3222 126.157 36.7062C126.904 37.0902 127.693 37.2822 128.525 37.2822ZM141.684 40.4502V17.0902H146.132V30.7222H145.364C145.364 28.9729 145.588 27.4902 146.036 26.2742C146.484 25.0582 147.146 24.1302 148.02 23.4902C148.916 22.8502 150.047 22.5302 151.412 22.5302H151.604C153.588 22.5302 155.092 23.2129 156.116 24.5782C157.14 25.9435 157.652 27.9275 157.652 30.5302V40.4502H153.204V30.1142C153.204 29.0049 152.884 28.1302 152.244 27.4902C151.626 26.8502 150.804 26.5302 149.78 26.5302C148.692 26.5302 147.807 26.8929 147.124 27.6182C146.463 28.3222 146.132 29.2502 146.132 30.4022V40.4502H141.684ZM163.266 40.4502V23.0742H167.714V40.4502H163.266ZM160.834 26.4022V23.0742H167.714V26.4022H160.834ZM164.898 20.9942C164.024 20.9942 163.373 20.7702 162.946 20.3222C162.541 19.8529 162.338 19.2769 162.338 18.5942C162.338 17.8689 162.541 17.2822 162.946 16.8342C163.373 16.3862 164.024 16.1622 164.898 16.1622C165.773 16.1622 166.413 16.3862 166.818 16.8342C167.224 17.2822 167.426 17.8689 167.426 18.5942C167.426 19.2769 167.224 19.8529 166.818 20.3222C166.413 20.7702 165.773 20.9942 164.898 20.9942ZM183.369 40.4502V35.2982H182.633V29.5702C182.633 28.5675 182.387 27.8209 181.897 27.3302C181.406 26.8395 180.649 26.5942 179.625 26.5942C179.091 26.5942 178.451 26.6049 177.705 26.6262C176.958 26.6475 176.201 26.6795 175.433 26.7222C174.686 26.7435 174.014 26.7755 173.417 26.8182V23.0422C173.907 22.9995 174.462 22.9569 175.081 22.9142C175.699 22.8715 176.329 22.8502 176.969 22.8502C177.63 22.8289 178.249 22.8182 178.825 22.8182C180.617 22.8182 182.099 23.0529 183.273 23.5222C184.467 23.9915 185.363 24.7275 185.961 25.7302C186.579 26.7329 186.889 28.0449 186.889 29.6662V40.4502H183.369ZM177.769 40.8982C176.51 40.8982 175.401 40.6742 174.441 40.2262C173.502 39.7782 172.766 39.1382 172.233 38.3062C171.721 37.4742 171.465 36.4715 171.465 35.2982C171.465 34.0182 171.774 32.9729 172.393 32.1622C173.033 31.3515 173.918 30.7435 175.049 30.3382C176.201 29.9329 177.545 29.7302 179.081 29.7302H183.113V32.3862H179.017C177.993 32.3862 177.203 32.6422 176.649 33.1542C176.115 33.6449 175.849 34.2849 175.849 35.0742C175.849 35.8635 176.115 36.5035 176.649 36.9942C177.203 37.4849 177.993 37.7302 179.017 37.7302C179.635 37.7302 180.201 37.6235 180.713 37.4102C181.246 37.1755 181.683 36.7915 182.025 36.2582C182.387 35.7035 182.59 34.9569 182.633 34.0182L183.721 35.2662C183.614 36.4822 183.315 37.5062 182.825 38.3382C182.355 39.1702 181.694 39.8102 180.841 40.2582C180.009 40.6849 178.985 40.8982 177.769 40.8982Z" fill="#937BD0"/>
<g clip-path="url(#clip0_265_8253)">
<g filter="url(#filter0_d_265_8253)">
<path fill-rule="evenodd" clip-rule="evenodd" d="M38.0286 0.450195C43.8128 0.450195 46.7041 0.450195 49.8178 1.43447C53.2171 2.67177 55.8943 5.34899 57.1316 8.74833C58.1159 11.8615 58.1159 14.7538 58.1159 20.5375V37.9788C58.1159 43.7629 58.1159 46.6543 57.1316 49.768C55.8943 53.1673 53.2171 55.8445 49.8178 57.0813C46.7041 58.0661 43.8128 58.0661 38.0286 58.0661H20.5873C14.8031 58.0661 11.9113 58.0661 8.79813 57.0813C5.39879 55.8445 2.72157 53.1673 1.48427 49.768C0.5 46.6543 0.5 43.7629 0.5 37.9788V20.5375C0.5 14.7538 0.5 11.8615 1.48427 8.74833C2.72157 5.34899 5.39879 2.67177 8.79813 1.43447C11.9113 0.450195 14.8031 0.450195 20.5873 0.450195H38.0286Z" fill="#937BD0"/>
<path d="M30.7584 40.0554C30.7904 36.7845 29.9611 34.1246 28.9063 34.1143C27.8514 34.104 26.9703 36.7472 26.9384 40.0181C26.9064 43.289 27.7357 45.949 28.7905 45.9592C29.8454 45.9696 30.7265 43.3264 30.7584 40.0554Z" fill="white"/>
<path d="M24.6412 39.3181C26.4366 36.5838 27.1772 33.8979 26.2954 33.3188C25.4135 32.7398 23.2432 34.487 21.4479 37.2213C19.6524 39.9556 18.9118 42.6415 19.7936 43.2206C20.6755 43.7996 22.8457 42.0524 24.6412 39.3181Z" fill="white"/>
<path d="M19.8885 35.3954C22.8772 34.0661 24.9525 32.207 24.5237 31.2431C24.095 30.2792 21.3246 30.5755 18.3359 31.905C15.3472 33.2344 13.2719 35.0935 13.7006 36.0573C14.1294 37.0212 16.8998 36.7249 19.8885 35.3954Z" fill="white"/>
<path d="M24.1642 28.5354C24.3247 27.4927 21.8339 26.2441 18.601 25.7465C15.368 25.2488 12.617 25.6907 12.4566 26.7334C12.2961 27.776 14.7868 29.0246 18.0198 29.5222C21.2528 30.0198 24.0038 29.5779 24.1642 28.5354Z" fill="white"/>
<path d="M25.3272 26.0507C26.0258 25.2603 24.6052 22.8634 22.1542 20.6972C19.7032 18.5311 17.15 17.4158 16.4514 18.2063C15.7528 18.9967 17.1734 21.3936 19.6244 23.5598C22.0754 25.7259 24.6287 26.8412 25.3272 26.0507Z" fill="white"/>
<path d="M27.6359 24.6027C28.651 24.3155 28.7519 21.5311 27.8612 18.3836C26.9706 15.2362 25.4257 12.9175 24.4106 13.2047C23.3956 13.492 23.2947 16.2763 24.1853 19.4238C25.076 22.5712 26.6209 24.8899 27.6359 24.6027Z" fill="white"/>
<path d="M33.9142 19.5185C34.8668 16.3892 34.8209 13.6034 33.8117 13.2962C32.8025 12.989 31.2122 15.2768 30.2596 18.4061C29.3071 21.5353 29.353 24.3212 30.3622 24.6283C31.3715 24.9355 32.9618 22.6478 33.9142 19.5185Z" fill="white"/>
<path d="M38.3984 23.7489C40.8913 21.6311 42.3586 19.2625 41.6755 18.4585C40.9925 17.6546 38.4179 18.7197 35.925 20.8375C33.4321 22.9554 31.965 25.324 32.648 26.128C33.331 26.9319 35.9056 25.8668 38.3984 23.7489Z" fill="white"/>
<path d="M39.8832 29.7335C43.1254 29.2997 45.6403 28.1005 45.5004 27.0548C45.3605 26.0093 42.6188 25.5133 39.3766 25.947C36.1345 26.3807 33.6196 27.58 33.7595 28.6256C33.8994 29.6712 36.641 30.1673 39.8832 29.7335Z" fill="white"/>
<path d="M44.065 36.3527C44.5127 35.3975 42.4745 33.4979 39.5126 32.1098C36.5507 30.7217 33.7867 30.3708 33.339 31.326C32.8913 32.2812 34.9295 34.1809 37.8915 35.569C40.8534 36.957 43.6174 37.308 44.065 36.3527Z" fill="white"/>
<path d="M37.8332 43.4015C38.7262 42.8401 38.0387 40.14 36.2976 37.3708C34.5565 34.6016 32.421 32.8121 31.528 33.3735C30.6349 33.935 31.3224 36.6351 33.0635 39.4043C34.8047 42.1734 36.9401 43.9631 37.8332 43.4015Z" fill="white"/>
</g>
</g>
<defs>
<filter id="filter0_d_265_8253" x="-9.10265" y="-9.15245" width="76.8215" height="76.8215" filterUnits="userSpaceOnUse" color-interpolation-filters="sRGB">
<feFlood flood-opacity="0" result="BackgroundImageFix"/>
<feColorMatrix in="SourceAlpha" type="matrix" values="0 0 0 0 0 0 0 0 0 0 0 0 0 0 0 0 0 0 127 0" result="hardAlpha"/>
<feOffset/>
<feGaussianBlur stdDeviation="4.80132"/>
<feColorMatrix type="matrix" values="0 0 0 0 0 0 0 0 0 0 0 0 0 0 0 0 0 0 0.1 0"/>
<feBlend mode="normal" in2="BackgroundImageFix" result="effect1_dropShadow_265_8253"/>
<feBlend mode="normal" in="SourceGraphic" in2="effect1_dropShadow_265_8253" result="shape"/>
</filter>
<clipPath id="clip0_265_8253">
<rect width="57.6159" height="57.6159" fill="white" transform="translate(0.5 0.450195)"/>
</clipPath>
</defs>
</svg>
