<svg width="152" height="71" viewBox="0 0 152 71" fill="none" xmlns="http://www.w3.org/2000/svg">
<rect x="5.5332" width="146.718" height="57.029" rx="28.5145" transform="rotate(5.56778 5.5332 0)" fill="#F2E7FF"/>
<path d="M28.9835 22.7175C29.1626 21.889 30.3793 22.0076 30.3951 22.8551L30.4143 23.8914C30.4732 27.0637 32.6187 29.8165 35.6806 30.6483L37.0168 31.0113C37.7926 31.2221 37.6821 32.3554 36.8802 32.4124L35.499 32.5105C32.3342 32.7353 29.6974 35.0219 29.0269 38.1231L28.8079 39.1362C28.6288 39.9647 27.4121 39.8461 27.3963 38.9986L27.3771 37.9623C27.3182 34.79 25.1727 32.0372 22.1108 31.2054L20.7746 30.8424C19.9988 30.6316 20.1092 29.4983 20.9112 29.4413L22.2923 29.3432C25.4572 29.1183 28.094 26.8317 28.7644 23.7305L28.9835 22.7175Z" fill="url(#paint0_linear_294_9437)"/>
<path d="M47.6002 40.2857L49.0835 25.0693L54.5074 25.5981C55.6912 25.7135 56.6509 26.0245 57.3866 26.5313C58.1222 27.038 58.6468 27.6842 58.9602 28.4698C59.2741 29.2505 59.3857 30.1064 59.2949 31.0376C59.2037 31.9738 58.9259 32.7967 58.4617 33.5065C58.0029 34.2119 57.361 34.7443 56.5359 35.1039C55.7162 35.459 54.7169 35.5791 53.5381 35.4642L49.8083 35.1006L49.998 33.154L53.5198 33.4973C54.2677 33.5702 54.8871 33.5006 55.3778 33.2884C55.869 33.0713 56.2455 32.748 56.5074 32.3185C56.7693 31.889 56.9282 31.3869 56.9842 30.8123C57.0403 30.2378 56.981 29.717 56.8065 29.2499C56.632 28.7829 56.3218 28.4001 55.8759 28.1016C55.4349 27.8036 54.833 27.6174 54.0702 27.5431L51.1874 27.2621L49.896 40.5095L47.6002 40.2857ZM60.805 41.573L61.9175 30.1607L64.0647 30.37L63.888 32.1829L64.0068 32.1945C64.2748 31.6006 64.6884 31.1533 65.2477 30.8528C65.8125 30.5479 66.4292 30.428 67.0979 30.4932C67.2366 30.5067 67.3995 30.5276 67.5868 30.5558C67.779 30.5846 67.9289 30.6117 68.0364 30.6372L67.8293 32.7621C67.7425 32.7287 67.5867 32.686 67.3617 32.634C67.1372 32.5771 66.9111 32.5376 66.6832 32.5154C66.1582 32.4642 65.6792 32.53 65.2464 32.7128C64.819 32.8912 64.4673 33.1644 64.1914 33.5326C63.916 33.8957 63.7542 34.325 63.7059 34.8203L63.0265 41.7895L60.805 41.573ZM72.0292 42.9222C71.306 42.8517 70.6652 42.6542 70.1068 42.3297C69.5489 42.0003 69.1241 41.5614 68.8326 41.0129C68.546 40.465 68.4391 39.817 68.512 39.0691C68.5748 38.4252 68.7503 37.9072 69.0385 37.5153C69.3267 37.1234 69.6932 36.8266 70.1379 36.6249C70.5826 36.4232 71.071 36.2858 71.6032 36.2127C72.1353 36.1396 72.6745 36.0971 73.2207 36.0854C73.9119 36.0727 74.473 36.0624 74.9038 36.0544C75.3351 36.0415 75.6531 35.985 75.8579 35.8849C76.0626 35.7849 76.1781 35.6011 76.2041 35.3336L76.2092 35.2816C76.2725 34.6328 76.1382 34.1121 75.8064 33.7198C75.4796 33.3279 74.9571 33.0969 74.2389 33.0269C73.4909 32.954 72.8853 33.0625 72.422 33.3523C71.9642 33.6377 71.634 33.9731 71.4314 34.3583L69.39 33.6793C69.7052 33.01 70.1214 32.4855 70.6384 32.1059C71.1609 31.7218 71.7436 31.4636 72.3865 31.3312C73.03 31.194 73.6959 31.1589 74.3844 31.226C74.8401 31.2704 75.3178 31.372 75.8173 31.5307C76.3223 31.6849 76.7839 31.9249 77.2022 32.2507C77.6254 32.577 77.9551 33.0167 78.1912 33.5697C78.4278 34.1178 78.5055 34.8079 78.4244 35.6401L77.6856 43.2186L75.5161 43.0071L75.6682 41.4468L75.5791 41.4381C75.4074 41.7114 75.1644 41.9727 74.8501 42.2221C74.5358 42.4715 74.1443 42.6658 73.6757 42.8052C73.2071 42.9445 72.6582 42.9835 72.0292 42.9222ZM72.6859 41.1861C73.3001 41.2459 73.837 41.1758 74.2966 40.9756C74.7611 40.7758 75.1263 40.4914 75.3923 40.1223C75.6637 39.7487 75.8214 39.3366 75.8654 38.8858L76.0088 37.4147C75.9218 37.4863 75.761 37.5456 75.5264 37.5927C75.2972 37.6354 75.0366 37.6675 74.7444 37.689C74.4528 37.7056 74.1689 37.7204 73.8926 37.7335C73.6168 37.7416 73.386 37.7491 73.2003 37.756C72.7641 37.7685 72.3614 37.8217 71.9922 37.9157C71.6279 38.0102 71.3275 38.1685 71.0908 38.3904C70.8596 38.6079 70.7247 38.9148 70.6861 39.311C70.6325 39.8608 70.795 40.2967 71.1736 40.6186C71.5528 40.9356 72.0569 41.1247 72.6859 41.1861ZM85.4293 44.2059C84.3247 44.0983 83.398 43.7554 82.6493 43.1774C81.9061 42.5949 81.3647 41.8396 81.0251 40.9114C80.6856 39.9833 80.5716 38.9471 80.6831 37.8029C80.7961 36.6438 81.1138 35.6422 81.6361 34.7981C82.1589 33.949 82.8409 33.3129 83.6822 32.8899C84.5235 32.4669 85.4816 32.3078 86.5564 32.4126C87.4232 32.4971 88.1803 32.7334 88.8275 33.1215C89.4752 33.5046 89.979 34.0038 90.3391 34.6189C90.7041 35.2345 90.8888 35.9301 90.8932 36.7056L88.7311 36.4948C88.6644 35.9483 88.4369 35.4611 88.0486 35.0332C87.6652 34.6058 87.1194 34.3576 86.411 34.2885C85.7919 34.2281 85.2336 34.3387 84.7361 34.6203C84.2441 34.8973 83.84 35.323 83.5241 35.8972C83.2085 36.4665 83.0112 37.1573 82.932 37.9696C82.8509 38.8018 82.9072 39.5323 83.1009 40.1612C83.2946 40.7901 83.6056 41.293 84.0339 41.6698C84.4671 42.047 84.9983 42.2663 85.6274 42.3276C86.0484 42.3687 86.4373 42.3291 86.794 42.2089C87.1562 42.0841 87.4679 41.887 87.7292 41.6175C87.9955 41.3484 88.1957 41.0129 88.3299 40.611L90.492 40.8217C90.3408 41.552 90.0363 42.1874 89.5786 42.7278C89.1209 43.2682 88.5391 43.6715 87.8331 43.9377C87.132 44.2044 86.3308 44.2938 85.4293 44.2059ZM98.9554 33.7713L98.7816 35.5544L92.5479 34.9468L92.7217 33.1636L98.9554 33.7713ZM94.66 30.5923L96.8815 30.8089L95.8291 41.6045C95.7871 42.0355 95.8199 42.3662 95.9274 42.5967C96.0355 42.8222 96.1871 42.9845 96.3825 43.0836C96.5833 43.1781 96.805 43.2373 97.0478 43.2609C97.2261 43.2783 97.3833 43.2811 97.5195 43.2694C97.6556 43.2577 97.7616 43.248 97.8373 43.2404L98.0596 45.1147C97.926 45.1517 97.7379 45.1833 97.4953 45.2097C97.2523 45.241 96.9522 45.2417 96.5951 45.2119C96.0096 45.1648 95.4749 45.0077 94.9909 44.7405C94.5069 44.4733 94.1311 44.0967 93.8635 43.6105C93.5958 43.1244 93.4956 42.5371 93.5627 41.8486L94.66 30.5923ZM100.3 45.4231L101.413 34.0108L103.634 34.2274L102.522 45.6397L100.3 45.4231ZM102.706 32.3593C102.32 32.3216 102.001 32.1605 101.748 31.8759C101.502 31.5868 101.396 31.2615 101.431 30.8999C101.467 30.5334 101.633 30.2346 101.931 30.0036C102.234 29.7681 102.579 29.6692 102.965 29.7068C103.351 29.7445 103.668 29.9079 103.915 30.1969C104.167 30.4816 104.275 30.8071 104.24 31.1737C104.204 31.5353 104.035 31.8338 103.732 32.0693C103.435 32.3003 103.093 32.397 102.706 32.3593ZM110.295 46.63C109.191 46.5223 108.264 46.1794 107.515 45.6014C106.772 45.0189 106.231 44.2636 105.891 43.3354C105.552 42.4073 105.438 41.3711 105.549 40.2269C105.662 39.0678 105.98 38.0662 106.502 37.2221C107.025 36.373 107.707 35.737 108.548 35.3139C109.389 34.8909 110.348 34.7318 111.422 34.8366C112.289 34.9211 113.046 35.1574 113.693 35.5455C114.341 35.9286 114.845 36.4278 115.205 37.0429C115.57 37.6586 115.755 38.3541 115.759 39.1296L113.597 38.9188C113.53 38.3723 113.303 37.8851 112.915 37.4572C112.531 37.0298 111.985 36.7816 111.277 36.7125C110.658 36.6522 110.1 36.7627 109.602 37.0443C109.11 37.3213 108.706 37.747 108.39 38.3212C108.074 38.8905 107.877 39.5813 107.798 40.3936C107.717 41.2258 107.773 41.9563 107.967 42.5852C108.161 43.2142 108.472 43.717 108.9 44.0938C109.333 44.471 109.864 44.6903 110.493 44.7516C110.914 44.7927 111.303 44.7531 111.66 44.6329C112.022 44.5082 112.334 44.311 112.595 44.0415C112.861 43.7724 113.062 43.4369 113.196 43.035L115.358 43.2457C115.207 43.976 114.902 44.6114 114.445 45.1518C113.987 45.6922 113.405 46.0956 112.699 46.3618C111.998 46.6284 111.197 46.7178 110.295 46.63ZM122.278 47.7981C121.153 47.6884 120.208 47.3538 119.443 46.7942C118.683 46.23 118.125 45.4881 117.77 44.5684C117.42 43.6443 117.303 42.5903 117.418 41.4064C117.532 40.2375 117.85 39.2284 118.373 38.3793C118.901 37.5307 119.583 36.8947 120.419 36.4712C121.261 36.0481 122.211 35.8883 123.271 35.9916C123.915 36.0544 124.529 36.2217 125.112 36.4936C125.696 36.7655 126.206 37.1527 126.642 37.6553C127.078 38.1578 127.399 38.7867 127.605 39.5418C127.812 40.2921 127.865 41.1848 127.764 42.22L127.688 43.0076L118.616 42.1232L118.778 40.4589L125.673 41.1311C125.73 40.5466 125.661 40.0174 125.468 39.5435C125.274 39.0646 124.975 38.6729 124.57 38.3683C124.169 38.0643 123.682 37.8843 123.107 37.8283C122.483 37.7674 121.923 37.8679 121.428 38.1296C120.938 38.3868 120.542 38.7483 120.242 39.214C119.947 39.6753 119.772 40.1908 119.716 40.7604L119.589 42.0606C119.515 42.8234 119.585 43.4853 119.801 44.0464C120.021 44.6079 120.36 45.0535 120.818 45.3831C121.276 45.7078 121.83 45.9018 122.479 45.965C122.9 46.0061 123.29 45.9841 123.648 45.899C124.007 45.809 124.324 45.6549 124.601 45.4368C124.877 45.2187 125.099 44.9379 125.268 44.5943L127.333 45.1782C127.105 45.7809 126.75 46.2939 126.268 46.717C125.793 47.1356 125.215 47.4419 124.536 47.6357C123.863 47.8251 123.11 47.8792 122.278 47.7981Z" fill="#7556B3"/>
<defs>
<linearGradient id="paint0_linear_294_9437" x1="18.2321" y1="36.7012" x2="36.3031" y2="36.3881" gradientUnits="userSpaceOnUse">
<stop offset="0.422952" stop-color="#6F3AFA"/>
<stop offset="1" stop-color="#BCA6A6"/>
</linearGradient>
</defs>
</svg>
