<svg width="279" height="88" viewBox="0 0 279 88" fill="none" xmlns="http://www.w3.org/2000/svg">
<rect y="13.5762" width="275.509" height="73.6424" rx="36.8212" transform="rotate(-2.82437 0 13.5762)" fill="#A7F1E1"/>
<rect x="25.9053" y="28.7793" width="41.5863" height="41.5863" rx="10.3966" transform="rotate(-2.82437 25.9053 28.7793)" fill="black" fill-opacity="0.11"/>
<path fill-rule="evenodd" clip-rule="evenodd" d="M48.1716 58.138C53.4817 57.876 57.574 53.3589 57.312 48.0489C57.05 42.7388 52.533 38.6465 47.2229 38.9084C41.9128 39.1704 37.8205 43.6874 38.0825 48.9975C38.3445 54.3076 42.8615 58.3999 48.1716 58.138ZM48.2665 60.0609C54.6386 59.7465 59.5493 54.3261 59.235 47.954C58.9206 41.5819 53.5001 36.6711 47.128 36.9855C40.7559 37.2998 35.8452 42.7203 36.1595 49.0924C36.4739 55.4645 41.8944 60.3753 48.2665 60.0609Z" fill="black"/>
<path d="M48.9326 43.9717L49.3673 52.7823L47.7712 52.8611L47.4132 45.6035L47.3616 45.606L45.3658 47.0241L45.2936 45.5614L47.414 44.0466L48.9326 43.9717Z" fill="black"/>
<rect x="74.3638" y="26.3887" width="41.5863" height="41.5863" rx="10.3966" transform="rotate(-2.82437 74.3638 26.3887)" fill="black" fill-opacity="0.11"/>
<path fill-rule="evenodd" clip-rule="evenodd" d="M96.6301 55.7473C101.94 55.4854 106.032 50.9683 105.771 45.6582C105.509 40.3481 100.991 36.2558 95.6814 36.5178C90.3713 36.7798 86.279 41.2968 86.541 46.6069C86.803 51.917 91.32 56.0093 96.6301 55.7473ZM96.725 57.6703C103.097 57.3559 108.008 51.9355 107.693 45.5634C107.379 39.1913 101.959 34.2805 95.5865 34.5949C89.2144 34.9092 84.3037 40.3297 84.618 46.7018C84.9324 53.0739 90.3529 57.9846 96.725 57.6703Z" fill="black"/>
<path d="M93.3904 50.6086L93.3335 49.4556L96.2443 46.3062C96.5223 45.9963 96.7531 45.7219 96.9368 45.4828C97.1205 45.2438 97.2558 45.0143 97.3427 44.7944C97.4296 44.5744 97.4671 44.3426 97.455 44.0988C97.4413 43.8206 97.3665 43.5857 97.2305 43.394C97.0944 43.1995 96.9133 43.0532 96.6871 42.9551C96.4608 42.857 96.2072 42.8149 95.9261 42.8287C95.6365 42.843 95.3856 42.9158 95.1736 43.047C94.9614 43.1753 94.8005 43.3515 94.6908 43.5754C94.5839 43.7991 94.5379 44.0616 94.5528 44.3627L93.0342 44.4377C93.0066 43.8784 93.1102 43.386 93.3451 42.9604C93.58 42.5348 93.9155 42.1977 94.3518 41.949C94.7909 41.7002 95.3015 41.5615 95.8838 41.5328C96.4746 41.5036 96.9991 41.5884 97.4574 41.7872C97.9158 41.9859 98.2777 42.2714 98.5433 42.6436C98.8118 43.0156 98.9582 43.4482 98.9825 43.9415C98.9988 44.2713 98.9517 44.5985 98.8412 44.9231C98.7307 45.2477 98.5259 45.6114 98.2266 46.0143C97.9302 46.4171 97.5103 46.9079 96.9667 47.4867L95.5243 49.106L95.5272 49.1663L99.3647 48.977L99.4305 50.3106L93.3904 50.6086Z" fill="black"/>
<rect x="122.822" y="23.998" width="41.5863" height="41.5863" rx="10.3966" transform="rotate(-2.82437 122.822 23.998)" fill="black" fill-opacity="0.11"/>
<path fill-rule="evenodd" clip-rule="evenodd" d="M145.089 53.3567C150.399 53.0947 154.491 48.5777 154.229 43.2676C153.967 37.9575 149.45 33.8652 144.14 34.1272C138.83 34.3892 134.738 38.9062 134.999 44.2163C135.261 49.5264 139.778 53.6187 145.089 53.3567ZM145.183 55.2797C151.556 54.9653 156.466 49.5448 156.152 43.1727C155.838 36.8006 150.417 31.8899 144.045 32.2042C137.673 32.5186 132.762 37.939 133.077 44.3111C133.391 50.6833 138.811 55.594 145.183 55.2797Z" fill="black"/>
<path d="M144.833 48.1915C144.214 48.222 143.658 48.1431 143.166 47.9546C142.676 47.766 142.283 47.4893 141.986 47.1244C141.689 46.7596 141.52 46.3295 141.478 45.8341L143.096 45.7543C143.122 45.9917 143.211 46.1957 143.363 46.3665C143.515 46.5343 143.713 46.6612 143.956 46.7469C144.199 46.8327 144.468 46.8683 144.763 46.8537C145.079 46.8382 145.356 46.7699 145.594 46.6489C145.832 46.525 146.015 46.3607 146.143 46.156C146.271 45.9513 146.327 45.72 146.312 45.462C146.301 45.1951 146.221 44.9634 146.07 44.7667C145.92 44.57 145.708 44.4208 145.436 44.3193C145.166 44.2176 144.845 44.1759 144.472 44.1943L143.694 44.2327L143.633 43.0023L144.412 42.9639C144.719 42.9488 144.984 42.8825 145.208 42.7651C145.435 42.6475 145.61 42.4894 145.733 42.2907C145.855 42.0891 145.908 41.8608 145.893 41.6057C145.883 41.356 145.817 41.1423 145.693 40.9644C145.572 40.7835 145.406 40.6465 145.194 40.5534C144.985 40.4602 144.743 40.4204 144.468 40.434C144.198 40.4473 143.951 40.5084 143.727 40.6172C143.502 40.726 143.324 40.8743 143.192 41.0619C143.06 41.2466 142.996 41.4625 143 41.7096L141.464 41.7854C141.451 41.2915 141.572 40.8514 141.826 40.4652C142.083 40.0759 142.435 39.7652 142.884 39.5332C143.332 39.2983 143.842 39.1668 144.413 39.1387C145.001 39.1096 145.517 39.1949 145.961 39.3944C146.407 39.5908 146.759 39.8682 147.015 40.2264C147.271 40.5846 147.411 40.9875 147.433 41.4349C147.46 41.9309 147.334 42.354 147.055 42.7041C146.779 43.0541 146.406 43.2925 145.935 43.4192L145.938 43.488C146.562 43.5435 147.048 43.7495 147.396 44.1061C147.747 44.4597 147.935 44.9119 147.959 45.4627C147.983 45.956 147.865 46.4046 147.603 46.8085C147.344 47.2094 146.974 47.5324 146.495 47.7774C146.018 48.0223 145.464 48.1603 144.833 48.1915Z" fill="black"/>
<rect x="171.28" y="21.6074" width="41.5863" height="41.5863" rx="10.3966" transform="rotate(-2.82437 171.28 21.6074)" fill="black" fill-opacity="0.11"/>
<path fill-rule="evenodd" clip-rule="evenodd" d="M193.547 50.9661C198.857 50.7041 202.949 46.1871 202.687 40.877C202.425 35.5669 197.908 31.4746 192.598 31.7366C187.288 31.9985 183.196 36.5156 183.457 41.8257C183.719 47.1357 188.237 51.228 193.547 50.9661ZM193.641 52.889C200.014 52.5747 204.924 47.1542 204.61 40.7821C204.296 34.41 198.875 29.4992 192.503 29.8136C186.131 30.128 181.22 35.5484 181.535 41.9205C181.849 48.2926 187.269 53.2034 193.641 52.889Z" fill="black"/>
<path d="M189.795 44.2158L189.732 42.9467L193.179 36.8555L194.238 36.8033L194.327 38.6102L193.682 38.642L191.362 42.7542L191.365 42.823L196.583 42.5655L196.648 43.8777L189.795 44.2158ZM194.079 45.6432L193.979 43.6212L193.968 43.0525L193.661 36.8317L195.167 36.7574L195.602 45.5681L194.079 45.6432Z" fill="black"/>
<rect x="219.739" y="19.2168" width="41.5863" height="41.5863" rx="10.3966" transform="rotate(-2.82437 219.739 19.2168)" fill="black" fill-opacity="0.11"/>
<path fill-rule="evenodd" clip-rule="evenodd" d="M242.005 48.5755C247.315 48.3135 251.407 43.7964 251.146 38.4864C250.884 33.1763 246.366 29.084 241.056 29.3459C235.746 29.6079 231.654 34.1249 231.916 39.435C232.178 44.7451 236.695 48.8374 242.005 48.5755ZM242.1 50.4984C248.472 50.184 253.383 44.7636 253.068 38.3915C252.754 32.0194 247.334 27.1086 240.962 27.423C234.589 27.7373 229.679 33.1578 229.993 39.5299C230.307 45.902 235.728 50.8128 242.1 50.4984Z" fill="black"/>
<path d="M241.763 43.4115C241.19 43.4398 240.671 43.3576 240.207 43.1648C239.743 42.9692 239.369 42.6887 239.083 42.3233C238.801 41.9577 238.639 41.5316 238.598 41.0448L240.146 40.9684C240.193 41.3284 240.364 41.6161 240.659 41.8315C240.954 42.0441 241.301 42.1405 241.7 42.1209C242.012 42.1055 242.287 42.02 242.524 41.8646C242.76 41.7092 242.943 41.5004 243.071 41.2382C243.199 40.976 243.253 40.6815 243.234 40.3547C243.221 40.0218 243.136 39.7299 242.98 39.4788C242.823 39.2278 242.617 39.0353 242.36 38.9013C242.103 38.7645 241.813 38.7041 241.489 38.7201C241.225 38.7302 240.968 38.7918 240.717 38.9048C240.467 39.0177 240.271 39.1596 240.13 39.3305L238.677 39.165L238.914 34.5993L244.024 34.3471L244.09 35.6808L240.3 35.8678L240.162 38.2163L240.213 38.2138C240.367 38.0135 240.59 37.843 240.882 37.7021C241.174 37.5583 241.498 37.4776 241.854 37.4601C242.387 37.4338 242.869 37.5365 243.301 37.7682C243.732 37.997 244.078 38.3249 244.341 38.7519C244.604 39.1788 244.749 39.6748 244.777 40.2398C244.805 40.822 244.696 41.3477 244.449 41.8171C244.205 42.2834 243.851 42.6588 243.388 42.9432C242.927 43.2247 242.386 43.3808 241.763 43.4115Z" fill="black"/>
</svg>
