<svg width="83" height="107" viewBox="0 0 83 107" fill="none" xmlns="http://www.w3.org/2000/svg">
<path d="M40.2272 58.7662C41.0289 57.5695 42.8976 58.2368 42.7599 59.6706L42.5131 62.2413C41.7864 69.8109 45.6462 77.1661 52.2315 80.9689V80.9689C53.5667 81.7399 52.827 83.8115 51.3053 83.5624V83.5624C43.8008 82.334 36.1552 85.5807 31.9229 91.8985L30.4856 94.0441C29.6839 95.2408 27.8152 94.5735 27.9529 93.1397L28.1997 90.569C28.9264 82.9994 25.0666 75.6442 18.4813 71.8414V71.8414C17.1461 71.0703 17.8858 68.9987 19.4075 69.2478V69.2478C26.912 70.4763 34.5576 67.2295 38.7899 60.9117L40.2272 58.7662Z" fill="url(#paint0_linear_294_9442)"/>
<path d="M43.6906 13.0833C44.201 12.0498 45.7665 12.6088 45.5069 13.7318L45.1894 15.105C44.2174 19.3086 46.1363 23.6493 49.8995 25.7595L51.5418 26.6804C52.4953 27.2152 51.9746 28.6734 50.898 28.4832L49.0439 28.1556C44.7952 27.4049 40.5609 29.5484 38.6504 33.4168L38.0264 34.6805C37.516 35.714 35.9504 35.1549 36.2101 34.0319L36.5276 32.6588C37.4995 28.4552 35.5806 24.1145 31.8174 22.0042L30.1752 21.0833C29.2216 20.5486 29.7423 19.0904 30.8189 19.2806L32.673 19.6082C36.9217 20.3588 41.156 18.2154 43.0665 14.3469L43.6906 13.0833Z" fill="url(#paint1_linear_294_9442)"/>
<defs>
<linearGradient id="paint0_linear_294_9442" x1="12.2795" y1="80.0553" x2="48.2376" y2="51.2029" gradientUnits="userSpaceOnUse">
<stop offset="0.422952" stop-color="#4184F7" stop-opacity="0.9"/>
<stop offset="1" stop-color="#4184F7" stop-opacity="0.24"/>
</linearGradient>
<linearGradient id="paint1_linear_294_9442" x1="24.8832" y1="27.9696" x2="54.6105" y2="8.58363" gradientUnits="userSpaceOnUse">
<stop offset="0.422952" stop-color="#4184F7" stop-opacity="0.9"/>
<stop offset="1" stop-color="#4184F7" stop-opacity="0.24"/>
</linearGradient>
</defs>
</svg>
