<svg width="39" height="38" viewBox="0 0 39 38" fill="none" xmlns="http://www.w3.org/2000/svg">
<path d="M29.866 19.7302L21.4562 16.6226L18.3584 8.20632C18.1749 7.70794 17.843 7.27783 17.4074 6.97401C16.9718 6.6702 16.4536 6.5073 15.9225 6.5073C15.3914 6.5073 14.8731 6.6702 14.4376 6.97401C14.002 7.27783 13.6701 7.70794 13.4866 8.20632L10.3692 16.6226L1.95293 19.7204C1.45455 19.9039 1.02444 20.2358 0.72062 20.6714C0.416804 21.107 0.253906 21.6252 0.253906 22.1563C0.253906 22.6874 0.416804 23.2057 0.72062 23.6413C1.02444 24.0768 1.45455 24.4087 1.95293 24.5922L10.3692 27.7096L13.4671 36.1259C13.6505 36.6243 13.9824 37.0544 14.418 37.3582C14.8536 37.662 15.3719 37.8249 15.9029 37.8249C16.434 37.8249 16.9523 37.662 17.3879 37.3582C17.8234 37.0544 18.1553 36.6243 18.3388 36.1259L21.4562 27.7096L29.8725 24.6118C30.3709 24.4283 30.801 24.0964 31.1048 23.6608C31.4086 23.2252 31.5715 22.7069 31.5715 22.1759C31.5715 21.6448 31.4086 21.1265 31.1048 20.6909C30.801 20.2554 30.3709 19.9235 29.8725 19.74L29.866 19.7302ZM19.9888 25.4628C19.8117 25.5281 19.651 25.631 19.5175 25.7644C19.3841 25.8978 19.2812 26.0586 19.216 26.2357L15.9127 35.1851L12.616 26.2422C12.5508 26.0633 12.4473 25.9008 12.3127 25.7662C12.178 25.6315 12.0155 25.528 11.8366 25.4628L2.89369 22.1661L11.8366 18.8694C12.0155 18.8042 12.178 18.7007 12.3127 18.566C12.4473 18.4314 12.5508 18.2689 12.616 18.09L15.9127 9.14708L19.2094 18.09C19.2747 18.2671 19.3776 18.4278 19.511 18.5613C19.6444 18.6947 19.8052 18.7976 19.9823 18.8628L28.9317 22.1661L19.9888 25.4628ZM21.1301 5.20958C21.1301 4.86364 21.2675 4.53188 21.5121 4.28727C21.7567 4.04265 22.0885 3.90523 22.4344 3.90523H25.0431V1.29654C25.0431 0.950601 25.1806 0.618835 25.4252 0.374222C25.6698 0.129609 26.0016 -0.0078125 26.3475 -0.0078125C26.6934 -0.0078125 27.0252 0.129609 27.2698 0.374222C27.5144 0.618835 27.6518 0.950601 27.6518 1.29654V3.90523H30.2605C30.6065 3.90523 30.9382 4.04265 31.1828 4.28727C31.4275 4.53188 31.5649 4.86364 31.5649 5.20958C31.5649 5.55551 31.4275 5.88728 31.1828 6.13189C30.9382 6.3765 30.6065 6.51393 30.2605 6.51393H27.6518V9.12262C27.6518 9.46856 27.5144 9.80032 27.2698 10.0449C27.0252 10.2895 26.6934 10.427 26.3475 10.427C26.0016 10.427 25.6698 10.2895 25.4252 10.0449C25.1806 9.80032 25.0431 9.46856 25.0431 9.12262V6.51393H22.4344C22.0885 6.51393 21.7567 6.3765 21.5121 6.13189C21.2675 5.88728 21.1301 5.55551 21.1301 5.20958ZM38.0866 13.0357C38.0866 13.3816 37.9492 13.7134 37.7046 13.958C37.46 14.2026 37.1282 14.34 36.7823 14.34H35.4779V15.6444C35.4779 15.9903 35.3405 16.3221 35.0959 16.5667C34.8513 16.8113 34.5195 16.9487 34.1736 16.9487C33.8276 16.9487 33.4959 16.8113 33.2513 16.5667C33.0066 16.3221 32.8692 15.9903 32.8692 15.6444V14.34H31.5649C31.2189 14.34 30.8872 14.2026 30.6426 13.958C30.398 13.7134 30.2605 13.3816 30.2605 13.0357C30.2605 12.6897 30.398 12.358 30.6426 12.1134C30.8872 11.8687 31.2189 11.7313 31.5649 11.7313H32.8692V10.427C32.8692 10.081 33.0066 9.74927 33.2513 9.50466C33.4959 9.26004 33.8276 9.12262 34.1736 9.12262C34.5195 9.12262 34.8513 9.26004 35.0959 9.50466C35.3405 9.74927 35.4779 10.081 35.4779 10.427V11.7313H36.7823C37.1282 11.7313 37.46 11.8687 37.7046 12.1134C37.9492 12.358 38.0866 12.6897 38.0866 13.0357Z" fill="white"/>
</svg>
