<svg width="151" height="48" viewBox="0 0 151 48" fill="none" xmlns="http://www.w3.org/2000/svg">
<rect x="75.7588" y="5.33398" width="67.0312" height="33" rx="8.25" transform="rotate(-4.56265 75.7588 5.33398)" fill="#FCCF2F"/>
<rect x="76.3138" y="5.80696" width="66" height="31.9688" rx="7.73438" transform="rotate(-4.56265 76.3138 5.80696)" stroke="#1F2429" stroke-opacity="0.2" stroke-width="1.03125"/>
<path d="M109.528 13.6116L110.422 24.8259L108.867 24.95L102.511 17.1803L102.407 17.1886L103.063 25.4132L101.371 25.5482L100.476 14.3339L102.042 14.2089L108.405 21.9891L108.509 21.9808L107.852 13.7453L109.528 13.6116ZM116.316 24.5265C115.527 24.5894 114.825 24.4636 114.208 24.1491C113.591 23.8346 113.095 23.3654 112.718 22.7416C112.341 22.1177 112.118 21.3714 112.049 20.5025C111.979 19.6301 112.081 18.8542 112.354 18.1748C112.626 17.4954 113.042 16.9516 113.601 16.5433C114.16 16.135 114.834 15.8994 115.622 15.8364C116.411 15.7735 117.113 15.8993 117.73 16.2138C118.346 16.5283 118.843 16.9993 119.22 17.6268C119.597 18.2543 119.821 19.0043 119.89 19.8768C119.959 20.7456 119.858 21.5179 119.585 22.1936C119.312 22.8693 118.896 23.4113 118.337 23.8196C117.778 24.2279 117.104 24.4635 116.316 24.5265ZM116.211 23.1516C116.722 23.1108 117.135 22.942 117.449 22.645C117.764 22.3481 117.983 21.9687 118.108 21.5069C118.236 21.0448 118.279 20.5436 118.236 20.0033C118.193 19.4667 118.072 18.9804 117.872 18.5445C117.675 18.1046 117.398 17.7612 117.04 17.5142C116.682 17.2673 116.248 17.1642 115.737 17.2049C115.222 17.246 114.806 17.417 114.488 17.7179C114.174 18.0185 113.953 18.4016 113.825 18.8674C113.7 19.3292 113.659 19.8285 113.702 20.3651C113.745 20.9054 113.865 21.3936 114.061 21.8298C114.262 22.2657 114.54 22.6053 114.898 22.8487C115.259 23.0917 115.697 23.1927 116.211 23.1516Z" fill="white"/>
<rect x="0.238281" y="14.3691" width="70.125" height="33" rx="8.25" transform="rotate(-4.56265 0.238281 14.3691)" fill="#FCCF2F"/>
<rect x="0.79329" y="14.8421" width="69.0938" height="31.9688" rx="7.73438" transform="rotate(-4.56265 0.79329 14.8421)" stroke="#1F2429" stroke-opacity="0.2" stroke-width="1.03125"/>
<path d="M23.0626 23.5201L24.9846 23.3667L28.321 28.2309L28.4414 28.2213L30.9641 22.8896L32.8861 22.7362L29.3612 29.8727L29.7126 34.2752L28.026 34.4098L27.6747 30.0073L23.0626 23.5201ZM37.5003 33.8246C36.6716 33.8907 35.9438 33.7706 35.3169 33.4643C34.6933 33.154 34.1933 32.6888 33.8168 32.0686C33.4437 31.4444 33.2224 30.6961 33.1528 29.8236C33.084 28.9621 33.184 28.19 33.4528 27.5072C33.7253 26.8242 34.137 26.2752 34.688 25.8602C35.2427 25.4449 35.9106 25.2061 36.6918 25.1437C37.1664 25.1058 37.6326 25.1476 38.0905 25.2691C38.5484 25.3905 38.9678 25.605 39.3487 25.9126C39.7296 26.2202 40.0437 26.6341 40.2909 27.1544C40.5379 27.6711 40.6918 28.3109 40.7527 29.0739L40.799 29.6543L34.1131 30.1878L34.0152 28.9613L39.0967 28.5557C39.0624 28.125 38.9443 27.7505 38.7426 27.4323C38.5405 27.1104 38.273 26.8654 37.94 26.6973C37.6106 26.5289 37.2342 26.4616 36.8107 26.4953C36.3508 26.5321 35.9582 26.6773 35.6331 26.931C35.3114 27.1808 35.0719 27.4938 34.9145 27.87C34.7606 28.2423 34.7003 28.6384 34.7338 29.0582L34.8103 30.0165C34.8552 30.5786 34.9919 31.049 35.2205 31.4275C35.4527 31.8058 35.756 32.0846 36.1304 32.2642C36.5044 32.44 36.9306 32.5089 37.4088 32.4707C37.7191 32.446 37.9985 32.3796 38.2471 32.2716C38.4953 32.1599 38.7054 32.0072 38.8773 31.8135C39.0492 31.6198 39.1739 31.3876 39.2515 31.1169L40.8234 31.2725C40.7357 31.7387 40.545 32.1562 40.2511 32.525C39.9606 32.8898 39.582 33.1864 39.1153 33.4146C38.6519 33.639 38.1136 33.7756 37.5003 33.8246ZM48.7071 26.3616L47.2442 26.7428C47.167 26.5579 47.054 26.3851 46.9052 26.2243C46.7601 26.0632 46.57 25.937 46.335 25.8455C46.0999 25.7541 45.8126 25.7219 45.4731 25.749C45.0095 25.786 44.6308 25.9209 44.3371 26.1537C44.0432 26.3829 43.9091 26.66 43.9351 26.9849C43.9575 27.2659 44.0796 27.484 44.3014 27.6389C44.5231 27.7939 44.8702 27.9076 45.3426 27.9802L46.7031 28.1802C47.4913 28.2973 48.0901 28.5269 48.4994 28.8689C48.9088 29.211 49.1372 29.6795 49.1847 30.2746C49.2249 30.7783 49.1147 31.239 48.8541 31.6566C48.5969 32.0702 48.218 32.409 47.7174 32.6731C47.2205 32.9368 46.6325 33.0958 45.9535 33.15C45.0117 33.2251 44.2272 33.0857 43.6001 32.7316C42.9728 32.3739 42.5618 31.8281 42.3673 31.0941L43.9306 30.7269C44.0621 31.1316 44.2896 31.4275 44.6131 31.6148C44.9364 31.7984 45.3444 31.8705 45.8372 31.8312C46.3739 31.7884 46.7939 31.6428 47.0974 31.3945C47.4006 31.1425 47.5392 30.8541 47.5133 30.5292C47.4923 30.2664 47.3761 30.0534 47.1647 29.8902C46.957 29.7268 46.6487 29.6155 46.2398 29.5562L44.7912 29.3577C43.9921 29.2415 43.3889 29.0031 42.9818 28.6425C42.5782 28.2816 42.3526 27.8018 42.3048 27.2031C42.2652 26.7067 42.3692 26.2612 42.617 25.8667C42.8647 25.4722 43.2248 25.1514 43.6974 24.9043C44.1697 24.6535 44.7216 24.5029 45.3531 24.4525C46.2621 24.38 46.9933 24.52 47.5468 24.8726C48.1 25.2216 48.4868 25.7179 48.7071 26.3616Z" fill="white"/>
</svg>
